<svg xmlns="http://www.w3.org/2000/svg" width="300" height="150" viewBox="0 0 300 150" version="1.1"><path d="M 51.427 7.938 C 38.586 9.145, 30.574 16.302, 27.324 29.468 C 25.996 34.853, 25.918 36.969, 26.874 41.737 C 28.320 48.956, 32.290 55.475, 37.797 59.675 C 42.985 63.633, 47.556 64.987, 55.750 64.994 L 62 65 62 58.142 L 62 51.285 55.954 50.653 C 52.629 50.305, 49.004 49.538, 47.900 48.947 C 40.441 44.955, 40.014 28.609, 47.250 24.070 C 48.487 23.294, 52.200 22.398, 55.500 22.079 L 61.500 21.500 61.500 14.514 C 61.500 6.546, 62.097 6.936, 51.427 7.938 M 225 35.132 C 225 53.582, 225.169 55.537, 227.019 58.531 C 229.488 62.526, 235.225 65, 242.020 65 L 247 65 247 58.500 L 247 52 243.700 52 C 238.997 52, 238 50.479, 238 43.300 L 238 37 242.548 37 L 247.095 37 246.798 30.750 L 246.500 24.500 242.250 24.193 L 238 23.885 238 19.443 L 238 15 231.500 15 L 225 15 225 35.132 M 252 34.599 C 252 50.855, 252.286 54.800, 253.674 57.726 C 255.786 62.177, 261.547 64.948, 268.750 64.978 L 274 65 274 58.500 L 274 52 270.107 52 C 265.484 52, 265 51.139, 265 42.918 L 265 37 269.500 37 L 274 37 274 31.019 C 274 25.633, 273.776 24.988, 271.750 24.532 C 270.512 24.254, 268.600 24.132, 267.500 24.263 C 265.783 24.466, 265.457 23.828, 265.195 19.750 L 264.890 15 258.445 15 L 252 15 252 34.599 M 80.685 25.017 C 76.252 26.348, 71.178 30.739, 68.795 35.308 C 61.395 49.497, 73.012 67.737, 88.156 65.706 C 93.775 64.952, 95 63.551, 95 57.878 L 95 53 89.955 53 C 85.931 53, 84.412 52.503, 82.455 50.545 C 78.213 46.304, 79.949 39.111, 85.745 36.907 C 88.940 35.692, 94.614 37.410, 96.008 40.014 C 96.553 41.034, 97 47.073, 97 53.434 L 97 65 104 65 L 111 65 111 52.468 C 111 35.174, 109.109 30.881, 99.500 26.368 C 94.269 23.911, 86.280 23.337, 80.685 25.017 M 191.500 25.657 C 187.045 27.998, 181.946 33.071, 180.381 36.718 C 178.384 41.372, 178.645 49.384, 180.941 53.885 C 186.753 65.277, 199.607 68.936, 210.792 62.381 C 214.930 59.957, 221 52.921, 221 50.549 C 221 49.916, 218.906 48.381, 216.347 47.138 C 211.486 44.776, 211.503 44.771, 209.001 49.120 C 207.942 50.961, 202.039 54, 199.522 54 C 198.600 54, 196.531 52.685, 194.923 51.077 C 188.387 44.541, 194.027 31.855, 202.134 34.854 C 204.092 35.578, 203.820 35.939, 199.144 38.816 C 196.315 40.557, 194 42.217, 194 42.505 C 194 43.453, 198.486 49.975, 199.147 49.988 C 199.503 49.994, 204.117 47.048, 209.400 43.441 C 217.347 38.015, 218.847 36.589, 218.083 35.191 C 216.483 32.265, 209.619 26.164, 206.685 25.060 C 202.617 23.528, 194.978 23.829, 191.500 25.657 M 121.314 26.950 C 117.308 29.393, 116 31.817, 116 36.799 C 116 41.811, 118.713 45.314, 125.099 48.550 C 127.794 49.916, 130 51.456, 130 51.973 C 130 52.490, 126.737 53.045, 122.750 53.206 L 115.500 53.500 115.200 59.250 L 114.900 65 123.982 65 C 137.606 65, 142.790 62.045, 143.725 53.745 C 144.140 50.066, 143.794 48.909, 141.445 46.118 C 139.923 44.308, 136.626 41.853, 134.120 40.664 C 131.613 39.474, 129.656 38.050, 129.771 37.500 C 129.886 36.950, 132.684 36.366, 135.990 36.202 L 142 35.905 142 30.452 L 142 25 133.250 25.004 C 126.351 25.007, 123.826 25.418, 121.314 26.950 M 154.500 25.954 C 150.374 27.661, 147.500 31.939, 147.500 36.375 C 147.500 42.199, 150.137 45.728, 156.636 48.602 C 159.644 49.933, 161.830 51.466, 161.493 52.011 C 161.157 52.555, 157.759 53, 153.941 53 L 147 53 147 59 L 147 65 156.032 65 C 169.853 65, 174.910 61.906, 175.256 53.241 C 175.471 47.838, 172.994 44.466, 166.456 41.259 C 159.133 37.667, 159.305 36, 167 36 L 173 36 173 30.500 L 173 25 164.750 25.063 C 160.213 25.098, 155.600 25.499, 154.500 25.954 M 62.374 130.500 C 62.376 136.550, 62.541 138.896, 62.740 135.713 C 62.939 132.531, 62.937 127.581, 62.736 124.713 C 62.535 121.846, 62.372 124.450, 62.374 130.500 M 237.158 122 C 237.158 123.375, 237.385 123.938, 237.662 123.250 C 237.940 122.563, 237.940 121.438, 237.662 120.750 C 237.385 120.063, 237.158 120.625, 237.158 122 M 237.310 131.500 C 237.315 134.800, 237.502 136.029, 237.725 134.232 C 237.947 132.435, 237.943 129.735, 237.715 128.232 C 237.486 126.729, 237.304 128.200, 237.310 131.500" stroke="none" fill="#adadad" fill-rule="evenodd"/><path d="M 62 145.500 L 62 150 77.045 150 L 92.091 150 91.414 146.250 C 91.042 144.188, 90.545 142.162, 90.310 141.750 C 90.074 141.338, 83.609 141, 75.941 141 L 62 141 62 145.500 M 209.690 141.750 C 209.455 142.162, 208.958 144.188, 208.586 146.250 L 207.909 150 222.955 150 L 238 150 238 145.500 L 238 141 224.059 141 C 216.391 141, 209.926 141.338, 209.690 141.750" stroke="none" fill="#ef4f3f" fill-rule="evenodd"/><path d="M 63 130.500 L 63 141 77 141 L 91 141 91 130.500 L 91 120 77 120 L 63 120 63 130.500 M 209.727 120.750 C 209.031 122.087, 208.846 136.938, 209.500 138.999 C 210.093 140.869, 211.011 141, 223.567 141 C 233.624 141, 237.011 140.686, 237.043 139.750 C 237.136 137.073, 237.167 124.381, 237.086 122.250 C 237.001 120.033, 236.806 120, 223.559 120 C 216.166 120, 209.942 120.338, 209.727 120.750 M 69.750 126.080 C 68.501 126.807, 68 128.365, 68 131.515 C 68 136.779, 69.600 138, 76.500 138 C 83.405 138, 85 136.780, 85 131.500 C 85 128.144, 84.531 126.819, 83.066 126.035 C 80.601 124.716, 72.043 124.745, 69.750 126.080" stroke="none" fill="#ffc173" fill-rule="evenodd"/><path d="M 88.362 98.767 C 59.216 99.076, 62.037 97.686, 62.014 111.750 L 62 120 76.500 120 L 91 120 91 116.955 C 91 115.054, 91.923 112.986, 93.455 111.455 L 95.909 109 150 109 L 204.091 109 206.545 111.455 C 208.077 112.986, 209 115.054, 209 116.955 L 209 120 223.594 120 L 238.187 120 237.844 110.081 C 237.655 104.626, 237.220 99.884, 236.878 99.543 C 236.212 98.879, 130.038 98.324, 88.362 98.767" stroke="none" fill="#4caaac" fill-rule="evenodd"/><path d="M 57.030 78.583 C 52.459 80.566, 50.192 82.707, 47.894 87.210 C 46.162 90.603, 46 93.447, 46 120.460 L 46 150 53.951 150 L 61.902 150 62.201 125.082 C 62.366 111.376, 62.826 99.838, 63.225 99.440 C 64.200 98.468, 235.761 98.428, 236.735 99.400 C 237.156 99.820, 237.634 111.376, 237.799 125.082 L 238.098 150 246.049 150 L 254 150 254 120.460 C 254 93.447, 253.838 90.603, 252.106 87.210 C 249.767 82.627, 247.496 80.523, 242.746 78.538 C 239.524 77.192, 227.926 77.005, 149.782 77.039 C 72.547 77.073, 60.032 77.281, 57.030 78.583 M 93.455 111.455 C 91.054 113.855, 91 114.259, 91.014 129.705 C 91.021 138.392, 91.299 146.512, 91.630 147.750 L 92.233 150 150 150 L 207.767 150 208.370 147.750 C 208.701 146.512, 208.979 138.392, 208.986 129.705 C 209 114.259, 208.946 113.855, 206.545 111.455 L 204.091 109 150 109 L 95.909 109 93.455 111.455 M 143.252 125.875 C 143.876 129.035, 143.868 132.376, 143.229 135.375 L 142.242 140 152.871 140 L 163.500 140 163.500 130.500 L 163.500 121 152.894 121 L 142.288 121 143.252 125.875 M 105.455 125.455 C 102.455 128.454, 102.323 131.870, 105.073 135.365 C 109.247 140.671, 118 137.685, 118 130.955 C 118 127.161, 114.076 123, 110.500 123 C 109.075 123, 106.805 124.105, 105.455 125.455 M 184.455 125.455 C 179.608 130.301, 182.853 138, 189.742 138 C 193.364 138, 197 134.152, 197 130.320 C 197 127.140, 192.758 123, 189.500 123 C 188.075 123, 185.805 124.105, 184.455 125.455" stroke="none" fill="#41434d" fill-rule="evenodd"/></svg>