<svg xmlns="http://www.w3.org/2000/svg" width="500" height="500" viewBox="0 0 500 500" version="1.1"><path d="M 85.357 194.954 C 75.714 199.015, 80.592 214.066, 90.731 211.535 C 95.247 210.408, 97 208.149, 97 203.456 C 97 200.893, 96.309 198.390, 95.250 197.114 C 93.232 194.683, 88.469 193.643, 85.357 194.954 M 407.500 195.155 C 404.217 196.951, 403 199.159, 403 203.325 C 403 206.386, 403.615 207.796, 405.750 209.632 C 414.444 217.110, 425.197 205.044, 417.077 196.923 C 414.029 193.875, 410.897 193.297, 407.500 195.155 M 110.500 211.645 C 109.400 211.883, 107.519 212.286, 106.319 212.541 C 104.225 212.985, 97 219.058, 97 220.374 C 97 220.725, 166.177 221.004, 250.726 220.994 L 404.453 220.975 401.976 218.709 C 400.614 217.463, 397.925 215.331, 396 213.972 L 392.500 211.500 252.500 211.356 C 175.500 211.276, 111.600 211.406, 110.500 211.645 M 171.239 260.653 C 169.446 261.537, 166.676 263.744, 165.084 265.558 C 163.491 267.371, 162.033 268.700, 161.844 268.511 C 161.414 268.080, 161.170 270.650, 160.820 279.300 C 160.669 283.041, 160.985 286.416, 161.523 286.800 C 162.060 287.185, 162.993 288.400, 163.596 289.500 C 165.715 293.367, 172.309 297.075, 178.055 297.631 C 185.403 298.341, 193.429 294.418, 196.734 288.500 C 199.465 283.608, 199.785 274.457, 197.401 269.433 C 195.675 265.796, 190.197 260.899, 186.680 259.850 C 182.575 258.625, 174.501 259.045, 171.239 260.653 M 224.160 260 C 214.270 260.478, 213.711 260.626, 211.333 263.395 C 208.922 266.202, 208.857 266.675, 209.173 279.051 C 209.386 287.362, 209.151 291.615, 208.500 291.246 C 207.943 290.931, 207.869 291.083, 208.333 291.590 C 208.792 292.090, 209.692 292.520, 210.333 292.545 C 210.975 292.570, 211.404 293.084, 211.286 293.686 C 211.143 294.424, 214.960 294.832, 222.977 294.936 L 234.881 295.090 235.935 291.295 C 237.342 286.227, 237.211 270.724, 235.708 264.500 L 234.500 259.500 224.160 260 M 247.299 259.745 C 252.139 259.929, 259.789 259.928, 264.299 259.743 C 268.810 259.558, 264.850 259.408, 255.500 259.409 C 246.150 259.410, 242.460 259.562, 247.299 259.745 M 276.265 260.772 C 276.176 261.723, 275.367 265.650, 274.467 269.500 C 272.804 276.624, 272.995 283.499, 275.072 291.250 C 276.076 294.995, 276.084 295, 281.466 295 C 286.097 295, 287.146 294.629, 288.927 292.365 C 290.758 290.037, 290.988 288.435, 290.900 278.615 C 290.845 272.502, 290.489 266.375, 290.108 265 C 289.324 262.169, 286.349 260.517, 280.464 259.644 C 277.111 259.146, 276.401 259.337, 276.265 260.772 M 312.368 260.088 C 310.646 260.587, 307.638 262.765, 305.685 264.927 C 297.503 273.983, 298.348 286.108, 307.667 293.368 C 312.866 297.419, 316.488 298.454, 322.375 297.571 C 328.068 296.717, 332.377 293.900, 335.710 288.854 C 338.143 285.170, 338.492 283.697, 338.439 277.352 C 338.393 271.829, 337.948 269.600, 336.591 268.101 C 335.608 267.015, 335.097 265.653, 335.454 265.074 C 335.848 264.437, 335.493 264.258, 334.552 264.618 C 333.698 264.946, 333 264.756, 333 264.196 C 333 263.636, 331.058 262.238, 328.684 261.089 C 324.143 258.891, 317.834 258.504, 312.368 260.088 M 172.500 265.827 C 167.104 269.313, 165.772 271.811, 165.706 278.564 C 165.655 283.854, 168.561 288.708, 173.210 291.095 C 182.558 295.895, 192.782 290.319, 193.786 279.875 C 194.655 270.835, 189.656 264.930, 180.570 264.262 C 176.785 263.983, 174.739 264.380, 172.500 265.827 M 311.999 266.250 C 308.066 268.935, 304.994 274.317, 305.016 278.484 C 305.055 285.498, 312.535 293.002, 319.484 292.998 C 327.004 292.995, 334.003 286.051, 333.996 278.602 C 333.986 267.336, 321.050 260.072, 311.999 266.250 M 97.606 337.416 C 97.905 338.194, 99.990 340.107, 102.239 341.666 L 106.329 344.500 248.688 344.763 C 378.632 345.004, 391.329 344.885, 394.274 343.396 C 397.899 341.564, 402 338.077, 402 336.826 C 402 336.372, 333.389 336, 249.531 336 C 118.448 336, 97.139 336.199, 97.606 337.416 M 133.430 355.415 C 131.741 356.151, 128.724 358.486, 126.725 360.605 C 122.762 364.806, 121.888 367.670, 120.043 382.500 C 118.982 391.031, 118.300 395.733, 116.017 410.250 C 115.477 413.688, 114.841 417.962, 114.604 419.750 L 114.174 423 249.587 423 C 357.260 423, 384.997 422.744, 384.983 421.750 C 384.974 421.063, 384.054 414.425, 382.939 407 C 380.933 393.641, 379.780 385.137, 378.398 373.500 C 377.346 364.642, 373.097 358.610, 365.746 355.538 C 362.505 354.184, 348.573 354.005, 249.282 354.039 C 157.408 354.071, 135.931 354.326, 133.430 355.415 M 180.806 379.040 C 178.265 381.581, 177.870 382.600, 178.398 385.242 C 179.372 390.109, 182.659 393, 187.220 393 C 192.390 393, 196 389.505, 196 384.500 C 196 376.383, 186.778 373.069, 180.806 379.040 M 305.589 379.077 C 302.761 382.438, 302.373 384.954, 304.163 388.316 C 305.954 391.677, 308.150 392.933, 312.295 392.968 C 317.382 393.011, 321 389.491, 321 384.500 C 321 376.335, 310.889 372.777, 305.589 379.077 M 87.024 389.080 C 80.623 390.480, 78.248 396.225, 81.674 402.024 C 84.412 406.660, 90.247 407.346, 94.746 403.560 C 97.230 401.470, 97.599 400.527, 97.319 396.984 C 96.827 390.760, 92.950 387.783, 87.024 389.080 M 149.077 390.589 C 142.777 395.889, 146.335 406, 154.500 406 C 159.491 406, 163.011 402.382, 162.968 397.295 C 162.933 393.150, 161.677 390.954, 158.316 389.163 C 154.954 387.373, 152.438 387.761, 149.077 390.589 M 340.360 389.460 C 335.540 392.836, 334.966 400.027, 339.201 403.972 C 341.525 406.138, 348.381 406.811, 349.510 404.984 C 349.856 404.425, 350.568 404.233, 351.094 404.558 C 351.619 404.883, 351.943 404.778, 351.812 404.324 C 351.682 403.871, 352.162 402.440, 352.879 401.145 C 356.963 393.769, 347.208 384.664, 340.360 389.460 M 408.188 389.033 C 404.241 390.653, 403 392.643, 403 397.356 C 403 401.025, 403.486 402.237, 405.635 403.927 C 411.712 408.708, 420 404.728, 420 397.028 C 420 391.044, 413.691 386.774, 408.188 389.033" stroke="none" fill="#4e5b64" fill-rule="evenodd"/><path d="M 236.735 266.250 C 238.186 272.431, 238.022 287.554, 236.448 292.750 L 235.767 295 255.786 295 L 275.804 295 274.402 290.341 C 272.194 283.004, 272.628 270.931, 275.413 262.250 L 276.135 260 255.701 260 L 235.268 260 236.735 266.250 M 177.013 264.762 C 171.125 265.801, 166 271.985, 166 278.049 C 166 286.096, 172.007 291.990, 180.215 291.996 C 190.987 292.005, 197.305 279.500, 191.220 270.214 C 188.698 266.364, 182.158 263.854, 177.013 264.762 M 315.500 265.199 C 309.508 267.320, 305.997 272.312, 306.004 278.700 C 306.011 286.543, 311.987 292, 320.568 292 C 324.639 292, 325.721 291.514, 329.035 288.201 C 334.038 283.197, 334.957 278.609, 332.126 272.761 C 328.967 266.234, 321.792 262.971, 315.500 265.199 M 108.028 269.058 C 104.436 270.572, 104.032 271.682, 104.015 280.095 C 103.994 290.733, 104.380 291, 119.772 291 C 134.396 291, 135 290.559, 135 279.888 C 135 269.597, 133.817 268.627, 120.862 268.287 C 115.163 268.138, 109.388 268.485, 108.028 269.058 M 181.923 378.923 C 180.161 380.685, 179 382.900, 179 384.500 C 179 387.928, 183.993 393, 187.367 393 C 191.520 393, 195.400 388.894, 195.400 384.500 C 195.400 381.637, 194.743 380.176, 192.644 378.370 C 188.939 375.183, 185.485 375.362, 181.923 378.923 M 308.500 377.155 C 305.473 378.810, 304 381.087, 304 384.109 C 304 388.196, 304.945 389.920, 308.072 391.537 C 312.115 393.628, 314.737 393.354, 317.545 390.545 C 324.189 383.902, 316.628 372.709, 308.500 377.155 M 150.364 390.170 C 148.049 391.291, 146 394.963, 146 397.991 C 146 399.035, 147.067 401.129, 148.372 402.646 C 151.614 406.415, 157.430 406.364, 160.722 402.537 C 166.775 395.499, 158.864 386.054, 150.364 390.170 M 339.455 391.455 C 333.152 397.757, 339.542 407.799, 347.984 404.856 C 351.636 403.583, 353 401.348, 353 396.638 C 353 389.805, 344.397 386.512, 339.455 391.455" stroke="none" fill="#eeefe9" fill-rule="evenodd"/><path d="M 268.264 122.718 C 269.784 122.947, 272.034 122.941, 273.264 122.704 C 274.494 122.467, 273.250 122.279, 270.500 122.286 C 267.750 122.294, 266.744 122.488, 268.264 122.718 M 372.320 152 C 372.320 155.575, 372.502 157.037, 372.723 155.250 C 372.945 153.463, 372.945 150.537, 372.723 148.750 C 372.502 146.963, 372.320 148.425, 372.320 152 M 94 278 L 94 297 119.565 297 L 145.131 297 144.828 278 L 144.525 259 119.262 259 L 94 259 94 278 M 355 278 L 355 297 380 297 L 405 297 405 278 L 405 259 380 259 L 355 259 355 278 M 108.028 269.058 C 104.436 270.572, 104.032 271.682, 104.015 280.095 C 103.994 290.733, 104.380 291, 119.772 291 C 134.396 291, 135 290.559, 135 279.888 C 135 269.597, 133.817 268.627, 120.862 268.287 C 115.163 268.138, 109.388 268.485, 108.028 269.058" stroke="none" fill="#f9dba9" fill-rule="evenodd"/><path d="M 94.684 297.650 C 93.525 298.809, 93.925 327.016, 95.158 331.134 L 96.317 335 249.683 335 L 403.050 335 404.171 332.250 C 404.787 330.738, 405.505 322.682, 405.765 314.349 C 406.203 300.302, 406.102 299.125, 404.369 298.202 C 402.173 297.033, 358.032 296.605, 356.404 297.738 C 355.801 298.157, 355.011 300.750, 354.648 303.500 C 353.904 309.143, 351.829 312.470, 347.010 315.750 L 343.704 318 250.312 318 C 159.817 318, 156.802 317.940, 153.113 316.058 C 148.092 313.496, 145.825 309.817, 145.097 303.052 L 144.500 297.500 119.934 297.233 C 106.422 297.086, 95.060 297.274, 94.684 297.650" stroke="none" fill="#fe8165" fill-rule="evenodd"/><path d="M 97.232 221.836 C 94.878 223.329, 94 229.420, 94 244.243 L 94 259 119.500 259 L 145 259 145 254.148 C 145 248.252, 147.966 243.294, 153.020 240.743 C 156.277 239.099, 162.552 239.003, 251 239.243 C 343.712 239.495, 345.552 239.538, 348.235 241.500 C 351.603 243.962, 355 250.586, 355 254.691 C 355 258.659, 355.095 258.672, 382.500 258.577 L 404.500 258.500 404.805 243.500 C 404.985 234.626, 404.662 226.969, 404.014 224.750 L 402.920 221 250.710 221.015 C 166.994 221.024, 97.929 221.393, 97.232 221.836 M 65.343 298.500 C 65.346 302.900, 65.522 304.576, 65.733 302.224 C 65.945 299.872, 65.942 296.272, 65.727 294.224 C 65.512 292.176, 65.339 294.100, 65.343 298.500" stroke="none" fill="#8ec2ac" fill-rule="evenodd"/><path d="M 122.909 87.967 C 95.947 91.514, 84.780 127.280, 104.050 148.365 C 110.738 155.682, 116.761 158.226, 128.750 158.798 L 138 159.239 138 150.619 L 138 142 132.212 142 C 125.442 142, 118.754 139.059, 115.559 134.677 C 113.856 132.341, 113.500 130.355, 113.500 123.177 C 113.500 115.803, 113.835 114.031, 115.730 111.373 C 118.722 107.179, 123.990 104.848, 131.384 104.447 L 137.500 104.116 137.500 95.810 L 137.500 87.505 133 87.368 C 130.525 87.293, 125.984 87.562, 122.909 87.967 M 345 121.301 C 345 144.779, 345.085 145.849, 347.294 150.093 C 350.472 156.200, 356.105 159, 365.212 159 L 372 159 372 151.500 L 372 144 368.250 143.985 C 362.118 143.960, 361.557 143.113, 361 133.037 L 360.500 123.997 366.250 123.999 L 372 124 372 116.500 L 372 109 366.550 109 L 361.100 109 360.800 103.250 L 360.500 97.500 352.750 97.208 L 345 96.916 345 121.301 M 379.022 120.750 C 379.046 147.204, 379.594 149.956, 385.887 155.252 C 389.577 158.356, 393.357 159.247, 401 158.813 L 406.500 158.500 406.794 151.250 L 407.088 144 402.615 144 C 395.992 144, 395 142.499, 395 132.478 L 395 124.100 400.512 123.800 C 403.543 123.635, 406.018 123.162, 406.012 122.750 C 406.005 122.338, 406 119.075, 406 115.500 L 406 109 400.500 109 L 395 109 395 103 L 395 97 387 97 L 379 97 379.022 120.750 M 163.939 109.303 C 143.614 115.060, 138.316 141.377, 154.749 154.951 C 159.376 158.773, 164.878 160.341, 171.682 159.777 C 178.952 159.174, 180 158.013, 180 150.564 L 180 144.372 174.019 144.805 C 168.268 145.221, 167.902 145.102, 164.519 141.719 C 159.161 136.361, 159.928 128.843, 166.225 125.004 C 171.083 122.043, 176.274 122.380, 180.234 125.915 L 183.500 128.831 183.822 143.915 L 184.144 159 192.072 159 L 200 159 199.978 142.750 C 199.954 124.812, 199.050 121.123, 193.376 115.804 C 186.783 109.622, 173.313 106.648, 163.939 109.303 M 304.627 109.407 C 290.611 114.624, 283.353 130.652, 289.031 143.850 C 291.718 150.096, 299.097 157.113, 304.764 158.811 C 316.150 162.222, 328.544 157.733, 335.857 147.550 C 337.586 145.143, 339 142.553, 339 141.795 C 339 141.037, 336.551 139.215, 333.557 137.747 L 328.115 135.078 326.064 138.397 C 321.262 146.167, 310.741 148.046, 305.685 142.037 C 298.210 133.154, 305.263 118.104, 315.604 120.869 C 317.197 121.295, 318.283 122.062, 318.018 122.572 C 317.753 123.082, 314.900 125.204, 311.677 127.287 C 305.199 131.474, 305.334 130.336, 310.392 138.160 L 312.112 140.821 324.017 132.660 C 330.564 128.172, 335.939 123.927, 335.960 123.228 C 336.025 121.160, 327.914 112.997, 323.617 110.805 C 318.476 108.182, 309.662 107.533, 304.627 109.407 M 217.655 110.459 C 209.617 113.325, 205.848 120.008, 207.924 127.717 C 209.222 132.539, 213.013 136.090, 220.135 139.154 C 223.528 140.613, 224.995 141.793, 224.785 142.893 C 224.536 144.196, 222.823 144.555, 215.739 144.789 L 207 145.078 207 152.142 L 207 159.206 219.250 158.853 C 233.251 158.450, 237.227 156.956, 240.248 150.966 C 244.447 142.643, 241.236 135.403, 231.100 130.334 C 222.818 126.194, 221.946 125.275, 224.500 123.386 C 225.600 122.572, 227.625 121.975, 229 122.059 C 230.375 122.143, 233.188 122.164, 235.250 122.106 L 239 122 239 115.500 L 239 109 230.250 109.044 C 225.438 109.068, 219.770 109.705, 217.655 110.459 M 258.479 109.911 C 253.902 111.036, 250.347 113.749, 248.586 117.460 C 244.314 126.462, 248.622 134.237, 260.791 139.489 C 263.617 140.709, 264.979 141.879, 264.780 142.920 C 264.542 144.174, 262.627 144.603, 255.490 145 L 246.500 145.500 246.651 149 C 246.733 150.925, 246.846 154.009, 246.901 155.853 L 247 159.206 259.250 158.820 C 273.111 158.383, 276.859 157.082, 279.659 151.733 C 282.046 147.174, 281.894 139.679, 279.346 136.246 C 278.225 134.736, 274.204 131.913, 270.412 129.974 C 259.906 124.600, 260.833 122.043, 273.298 122.014 L 279.095 122 278.798 115.750 L 278.500 109.500 270 109.334 C 265.325 109.243, 260.141 109.503, 258.479 109.911 M 404.804 245.750 C 404.637 253.313, 404.739 268.500, 405.031 279.500 C 405.510 297.499, 405.585 296.124, 405.781 265.750 C 405.902 247.188, 405.799 232, 405.554 232 C 405.309 232, 404.971 238.188, 404.804 245.750 M 246.250 295.745 C 251.062 295.928, 258.938 295.928, 263.750 295.745 C 268.563 295.561, 264.625 295.411, 255 295.411 C 245.375 295.411, 241.438 295.561, 246.250 295.745" stroke="none" fill="#a6a6a6" fill-rule="evenodd"/><path d="" stroke="none" fill="#f4b59c" fill-rule="evenodd"/><path d="M 91 183.930 C 89.625 184.341, 88.638 185.276, 88.806 186.008 C 89.058 187.100, 88.833 187.107, 87.556 186.047 C 86.287 184.994, 86 184.993, 86 186.044 C 86 186.753, 85.707 187.040, 85.349 186.682 C 84.991 186.324, 84.057 186.812, 83.275 187.766 C 82.444 188.778, 82.177 188.876, 82.633 188 C 83.271 186.775, 82.964 186.806, 80.957 188.170 C 79.606 189.088, 78.607 190.309, 78.738 190.884 C 78.869 191.458, 78.364 191.693, 77.616 191.406 C 75.989 190.782, 68.549 200.462, 69.488 201.981 C 69.835 202.541, 69.685 203, 69.157 203 C 66.245 203, 66 210.757, 66 302.971 C 66 386.074, 66.180 397.172, 67.594 401.323 C 68.471 403.896, 69.591 405.753, 70.083 405.449 C 70.575 405.145, 70.714 405.581, 70.393 406.419 C 69.710 408.199, 80.545 419.399, 82.051 418.469 C 82.573 418.146, 83 418.346, 83 418.913 C 83 421.131, 93.577 423.078, 104.049 422.786 L 114.336 422.500 114.669 419.500 C 114.853 417.850, 115.452 413.688, 116.001 410.250 C 118.099 397.124, 118.960 391.210, 120.043 382.500 C 121.888 367.667, 122.761 364.806, 126.728 360.601 C 133.373 353.558, 125.149 354, 249.500 354 C 348.535 354, 362.507 354.185, 365.746 355.538 C 373.097 358.610, 377.346 364.642, 378.398 373.500 C 379.780 385.137, 380.933 393.641, 382.939 407 C 384.054 414.425, 384.974 421.109, 384.983 421.853 C 384.997 422.935, 387.468 423.135, 397.347 422.853 C 404.762 422.641, 410.255 422.035, 411.097 421.335 C 411.869 420.694, 412.725 420.198, 413 420.232 C 413.275 420.266, 414.545 419.962, 415.822 419.556 C 417.380 419.062, 417.949 418.309, 417.549 417.268 C 417.078 416.039, 417.243 415.957, 418.344 416.871 C 419.407 417.753, 420 417.705, 420.859 416.670 C 421.477 415.925, 421.649 414.948, 421.241 414.498 C 420.834 414.048, 420.994 413.960, 421.597 414.304 C 423.046 415.129, 428.415 409.481, 427.535 408.056 C 427.149 407.432, 427.428 407.070, 428.176 407.225 C 428.904 407.376, 429.388 406.938, 429.250 406.250 C 429.113 405.563, 429.437 405, 429.972 405 C 430.507 405, 431.644 402.591, 432.500 399.648 C 433.868 394.942, 434.023 383.005, 433.778 300.898 C 433.540 221.040, 433.288 207.138, 432.035 205 C 430.636 202.610, 430.408 202.036, 430.125 200.180 C 430.056 199.729, 428.359 197.443, 426.354 195.100 C 421.795 189.775, 415.674 185.804, 413.379 186.685 C 412.300 187.099, 411.914 186.948, 412.330 186.275 C 412.692 185.689, 412.204 184.825, 411.244 184.355 C 409.102 183.305, 94.491 182.888, 91 183.930 M 85.357 194.954 C 75.714 199.015, 80.592 214.066, 90.731 211.535 C 95.247 210.408, 97 208.149, 97 203.456 C 97 200.893, 96.309 198.390, 95.250 197.114 C 93.232 194.683, 88.469 193.643, 85.357 194.954 M 407.500 195.155 C 404.217 196.951, 403 199.159, 403 203.325 C 403 206.386, 403.615 207.796, 405.750 209.632 C 414.444 217.110, 425.197 205.044, 417.077 196.923 C 414.029 193.875, 410.897 193.297, 407.500 195.155 M 110.500 211.645 C 109.400 211.883, 107.519 212.286, 106.319 212.541 C 103.519 213.135, 97.489 218.832, 96.572 221.750 C 96.183 222.988, 95.469 224, 94.984 224 C 93.676 224, 93.702 326.181, 95.012 331.045 L 96.074 334.987 249.870 335.244 C 351.838 335.414, 403.713 335.163, 403.803 334.500 C 403.878 333.950, 404.397 331.025, 404.957 328 C 406.089 321.876, 406.482 240.092, 405.425 230.500 C 405.062 227.200, 404.095 223.432, 403.278 222.127 C 402.126 220.286, 402.096 219.922, 403.146 220.503 C 405.342 221.720, 399.806 216.660, 396 213.972 L 392.500 211.500 252.500 211.356 C 175.500 211.276, 111.600 211.406, 110.500 211.645 M 152.815 241.027 C 150.788 242.102, 148.806 243.505, 148.410 244.145 C 147.934 244.917, 148.165 245.059, 149.095 244.568 C 149.868 244.160, 149.417 244.708, 148.094 245.785 C 146.519 247.068, 145.910 248.324, 146.332 249.424 C 146.687 250.348, 146.628 250.888, 146.202 250.625 C 145.776 250.362, 145.326 262.938, 145.202 278.573 C 145.045 298.259, 145.305 307, 146.047 307 C 146.636 307, 146.848 307.437, 146.517 307.972 C 145.613 309.435, 148.921 313.908, 152.138 315.571 C 153.701 316.379, 155.096 317.002, 155.240 316.956 C 155.383 316.909, 156.180 317.132, 157.011 317.451 C 157.842 317.770, 200.555 317.911, 251.928 317.765 C 325.822 317.555, 345.421 317.238, 345.752 316.244 C 345.982 315.553, 346.514 315.199, 346.932 315.458 C 348.021 316.131, 353.293 310.386, 353.527 308.273 C 353.634 307.298, 354.015 305.823, 354.374 304.996 C 354.732 304.168, 354.907 291.263, 354.763 276.317 C 354.515 250.652, 354.385 248.990, 352.438 246.383 C 351.304 244.866, 349.134 242.696, 347.615 241.562 C 344.877 239.517, 344.068 239.498, 250.677 239.286 C 158.932 239.077, 156.405 239.122, 152.815 241.027 M 236.598 258.735 C 235.603 259.730, 235.616 259.729, 224.423 259.875 C 215.204 259.995, 214.735 260.111, 211.866 262.981 L 208.885 265.961 209.193 278.482 C 209.368 285.629, 209.107 291.003, 208.583 291.002 C 207.254 290.999, 208.946 292.491, 210.333 292.545 C 210.975 292.570, 211.404 293.082, 211.287 293.683 C 211.026 295.026, 224.719 295.519, 260.379 295.451 L 286.258 295.401 288.629 292.645 C 290.834 290.081, 290.993 289.105, 290.900 278.694 C 290.845 272.537, 290.489 266.375, 290.108 265 C 289.247 261.892, 285.713 260.123, 279.662 259.771 C 277.104 259.622, 275.001 259.050, 274.990 258.500 C 274.976 257.833, 274.724 257.833, 274.235 258.500 C 273.371 259.675, 238.797 259.899, 237.932 258.735 C 237.619 258.314, 237.019 258.314, 236.598 258.735 M 171.239 260.653 C 169.446 261.537, 166.676 263.744, 165.084 265.558 C 163.491 267.371, 162.033 268.700, 161.844 268.511 C 161.414 268.080, 161.170 270.650, 160.820 279.300 C 160.669 283.041, 160.985 286.416, 161.523 286.800 C 162.060 287.185, 162.993 288.400, 163.596 289.500 C 165.715 293.367, 172.309 297.075, 178.055 297.631 C 185.403 298.341, 193.429 294.418, 196.734 288.500 C 199.465 283.608, 199.785 274.457, 197.401 269.433 C 195.675 265.796, 190.197 260.899, 186.680 259.850 C 182.575 258.625, 174.501 259.045, 171.239 260.653 M 312.368 260.088 C 310.646 260.587, 307.638 262.765, 305.685 264.927 C 297.503 273.983, 298.348 286.108, 307.667 293.368 C 312.866 297.419, 316.488 298.454, 322.375 297.571 C 328.068 296.717, 332.377 293.900, 335.710 288.854 C 338.143 285.170, 338.492 283.697, 338.439 277.352 C 338.393 271.829, 337.948 269.600, 336.591 268.101 C 335.608 267.015, 335.097 265.653, 335.454 265.074 C 335.848 264.437, 335.493 264.258, 334.552 264.618 C 333.698 264.946, 333 264.756, 333 264.196 C 333 263.636, 331.058 262.238, 328.684 261.089 C 324.143 258.891, 317.834 258.504, 312.368 260.088 M 237.286 278.500 C 237.294 281.250, 237.488 282.256, 237.718 280.736 C 237.947 279.216, 237.941 276.966, 237.704 275.736 C 237.467 274.506, 237.279 275.750, 237.286 278.500 M 97.606 337.416 C 97.905 338.194, 99.990 340.107, 102.239 341.666 L 106.329 344.500 248.688 344.763 C 378.632 345.004, 391.329 344.885, 394.274 343.396 C 397.899 341.564, 402 338.077, 402 336.826 C 402 336.372, 333.389 336, 249.531 336 C 118.448 336, 97.139 336.199, 97.606 337.416 M 87.024 389.080 C 80.623 390.480, 78.248 396.225, 81.674 402.024 C 84.412 406.660, 90.247 407.346, 94.746 403.560 C 97.230 401.470, 97.599 400.527, 97.319 396.984 C 96.827 390.760, 92.950 387.783, 87.024 389.080 M 408.188 389.033 C 404.241 390.653, 403 392.643, 403 397.356 C 403 401.025, 403.486 402.237, 405.635 403.927 C 411.712 408.708, 420 404.728, 420 397.028 C 420 391.044, 413.691 386.774, 408.188 389.033" stroke="none" fill="#616b75" fill-rule="evenodd"/></svg>