<svg xmlns="http://www.w3.org/2000/svg" width="400" height="125" viewBox="0 0 400 125" version="1.1"><path d="M 274.202 61.250 L 274.500 67.500 324.298 67.759 L 374.096 68.019 373.798 61.759 L 373.500 55.500 366.242 55.206 C 359.119 54.918, 358.964 54.964, 357.929 57.686 C 357.349 59.211, 356.341 60.799, 355.687 61.214 C 355.034 61.630, 340.695 61.976, 323.821 61.985 C 297.252 61.998, 292.932 61.790, 291.571 60.429 C 290.707 59.564, 290 57.989, 290 56.929 C 290 55.184, 289.234 55, 281.952 55 L 273.905 55 274.202 61.250" stroke="none" fill="#f05044" fill-rule="evenodd"/><path d="M 274 49.500 L 274 55 282 55 L 290 55 290 49.500 L 290 44 282 44 L 274 44 274 49.500 M 358 49.500 L 358 55 366 55 L 374 55 374 49.500 L 374 44 366 44 L 358 44 358 49.500 M 278.163 46.878 C 277.427 47.345, 276.977 48.800, 277.163 50.113 C 277.448 52.132, 278.141 52.547, 281.666 52.803 C 285.164 53.058, 285.938 52.770, 286.498 51.005 C 286.868 49.841, 286.628 48.257, 285.960 47.452 C 284.639 45.861, 280.275 45.540, 278.163 46.878" stroke="none" fill="#facb63" fill-rule="evenodd"/><path d="M 274 37 L 274 43 281.474 43 C 288.768 43, 288.986 42.927, 290.500 40 L 292.051 37 324 37 L 355.949 37 357.522 40.043 C 359.080 43.055, 359.168 43.083, 366.298 42.793 L 373.500 42.500 373.800 36.750 L 374.100 31 324.050 31 L 274 31 274 37" stroke="none" fill="#4aa9a1" fill-rule="evenodd"/><path d="M 36.994 33.934 C 29.418 36.239, 24.261 40.891, 20.929 48.427 C 16.270 58.961, 19.116 72.412, 27.580 79.862 C 32.614 84.292, 37.562 86, 45.366 86 L 51 86 51 79.500 L 51 73 47.750 72.994 C 37.974 72.978, 33.011 68.536, 33.004 59.797 C 32.997 50.913, 36.431 47.224, 45.589 46.279 L 51 45.720 51 39.360 L 51 33 45.250 33.086 C 42.087 33.133, 38.372 33.515, 36.994 33.934 M 200.002 57.750 C 200.003 72.645, 200.284 76.063, 201.752 79 C 203.996 83.493, 209.004 85.996, 215.750 85.998 L 221 86 221 80 L 221 74 217.700 74 C 213.075 74, 212 72.453, 212 65.800 L 212 60 216.500 60 L 221 60 221 54.500 L 221 49 216.500 49 L 212 49 212 44.500 L 212 40 206 40 L 200 40 200.002 57.750 M 225.004 58.250 C 225.007 74.791, 225.196 76.810, 227.026 79.810 C 229.538 83.932, 234.756 86.194, 240.840 85.801 L 245.500 85.500 245.500 80 L 245.500 74.500 242.009 74.169 C 237.590 73.749, 237.034 72.812, 237.015 65.750 L 237 60 241 60 L 245 60 245 54.500 L 245 49 241 49 L 237 49 237 44.500 L 237 40 231 40 L 225 40 225.004 58.250 M 281.500 43 L 273.500 43.633 281.750 43.817 C 286.706 43.927, 290 43.601, 290 43 C 290 42.450, 289.887 42.083, 289.750 42.183 C 289.613 42.284, 285.900 42.652, 281.500 43 M 358 43.250 C 358 43.663, 361.640 44, 366.089 44 L 374.178 44 373.839 49.954 C 373.652 53.229, 373.862 55.544, 374.304 55.100 C 374.747 54.655, 374.972 51.709, 374.804 48.553 L 374.500 42.815 366.250 42.658 C 361.712 42.571, 357.999 42.837, 358 43.250 M 69.994 48.879 C 61.390 51.685, 56.484 57.190, 55.375 65.283 C 53.686 77.605, 65.222 89.030, 76.640 86.342 C 80.488 85.436, 80.501 85.415, 80.793 79.956 L 81.086 74.479 76.636 74.833 C 71.100 75.273, 68 72.703, 68 67.674 C 68 61.099, 75.861 57.637, 81.120 61.896 C 83.271 63.638, 83.492 64.695, 83.841 74.896 L 84.221 86 90.111 86 L 96 86 96 73.960 C 96 59.544, 94.529 55.567, 87.723 51.578 C 83.093 48.865, 74.192 47.510, 69.994 48.879 M 171.685 49.017 C 163.552 51.458, 157.413 60.542, 158.220 68.941 C 159.599 83.293, 174.690 91.060, 187.084 83.797 C 191.005 81.499, 197 74.800, 197 72.717 C 197 72.345, 195.118 71.080, 192.817 69.907 L 188.634 67.773 186.067 70.872 C 184.655 72.576, 181.997 74.486, 180.161 75.114 C 177.285 76.099, 176.453 75.983, 174.161 74.277 C 169.292 70.652, 168.781 64.219, 173.025 59.975 C 174.990 58.010, 180 57.214, 180 58.867 C 180 59.344, 178.194 60.929, 175.986 62.390 L 171.973 65.046 173.539 68.075 C 174.400 69.740, 175.688 71.327, 176.401 71.601 C 177.603 72.062, 193.238 62.043, 194.497 60.004 C 194.806 59.505, 193.133 57.097, 190.779 54.653 C 185.130 48.787, 178.738 46.900, 171.685 49.017 M 106 50.752 C 103.471 52.015, 102.118 53.610, 101.124 56.500 C 99.048 62.538, 101.264 67.086, 107.926 70.463 C 110.717 71.877, 113 73.476, 113 74.017 C 113 74.560, 110.092 75, 106.500 75 L 100 75 100 80.500 L 100 86 108.550 86 C 121.153 86, 126 82.773, 126 74.381 C 126 70.910, 125.444 69.719, 122.696 67.306 C 120.878 65.710, 117.936 63.802, 116.158 63.065 C 111.618 61.185, 112.745 59.553, 118.829 59.198 L 124 58.895 124 53.948 L 124 49 116.750 49.002 C 111.852 49.003, 108.365 49.570, 106 50.752 M 135.315 50.464 C 131.983 51.913, 129 56.418, 129 60 C 129 64.050, 131.983 67.958, 137.023 70.512 C 139.760 71.899, 142 73.476, 142 74.017 C 142 74.560, 139.092 75, 135.500 75 L 129 75 129 80.500 L 129 86 137.032 86 C 149.601 86, 155 82.651, 155 74.854 C 155 70.410, 151.566 65.865, 146.770 63.962 C 139.340 61.015, 139.930 59.042, 148.250 59.015 L 153 59 153 54 L 153 49 145.750 49.039 C 141.762 49.061, 137.067 49.702, 135.315 50.464" stroke="none" fill="#9aa5a4" fill-rule="evenodd"/><path d="M 269.763 19.565 C 264.221 22.572, 264 24.046, 264 58.050 L 264 89.200 267.400 92.600 L 270.800 96 324 96 L 377.200 96 380.600 92.600 L 384 89.200 384 58.050 C 384 23.844, 383.791 22.495, 378.033 19.517 C 373.688 17.270, 273.910 17.315, 269.763 19.565 M 273.823 39.250 C 273.590 50.110, 274.071 66.304, 274.655 67.250 C 274.910 67.662, 297.299 68, 324.408 68 L 373.698 68 374.330 58.384 C 374.677 53.095, 374.678 44.770, 374.331 39.884 L 373.701 31 323.850 31 L 274 31 273.823 39.250 M 291.035 38.934 C 290.466 39.998, 290 44.916, 290 49.863 C 290 56.706, 290.376 59.233, 291.571 60.429 C 292.932 61.789, 297.281 62, 324 62 C 350.719 62, 355.068 61.789, 356.429 60.429 C 357.624 59.233, 358 56.706, 358 49.863 C 358 35.770, 361.252 37, 324 37 C 293.456 37, 292.025 37.084, 291.035 38.934 M 320.284 49.250 L 320.281 54.500 325.891 54.171 L 331.500 53.841 331.507 48.921 L 331.515 44 325.900 44 L 320.286 44 320.284 49.250 M 298.571 46.571 C 295.691 49.452, 297.399 53, 301.665 53 C 303.550 53, 306 50.534, 306 48.637 C 306 47.592, 302.793 45, 301.500 45 C 300.754 45, 299.436 45.707, 298.571 46.571 M 344.046 46.445 C 342.135 48.747, 343.156 52.451, 345.805 52.827 C 350.228 53.454, 352.459 49.602, 349.429 46.571 C 347.470 44.613, 345.603 44.569, 344.046 46.445 M 302.336 82.567 C 301.502 84.739, 303.618 86.782, 305.133 85.267 C 306.413 83.987, 305.620 81, 304 81 C 303.415 81, 302.667 81.705, 302.336 82.567 M 342.336 82.567 C 341.426 84.939, 343.559 86.611, 345.470 85.025 C 346.654 84.042, 346.754 83.409, 345.890 82.367 C 344.392 80.563, 343.077 80.637, 342.336 82.567 M 291.380 86.452 C 290.683 88.267, 291.695 90, 293.452 90 C 295.277 90, 296.096 87.496, 294.722 86.122 C 293.199 84.599, 292.048 84.712, 291.380 86.452 M 353.688 85.646 C 352.216 87.117, 352.990 90.149, 354.750 89.810 C 355.712 89.624, 356.500 88.616, 356.500 87.570 C 356.500 85.580, 354.869 84.464, 353.688 85.646" stroke="none" fill="#41414a" fill-rule="evenodd"/></svg>