<svg xmlns="http://www.w3.org/2000/svg" width="500" height="500" viewBox="0 0 500 500" version="1.1"><path d="M 240.077 284.610 C 234.733 286.857, 233.689 293.689, 238.025 298.025 C 240.768 300.768, 245.233 300.516, 248.923 297.411 C 252.568 294.344, 252.965 290.496, 250.023 286.756 C 247.579 283.650, 244.130 282.905, 240.077 284.610 M 243.736 345.598 C 243.407 345.927, 243.403 346.939, 243.728 347.848 C 244.053 348.756, 243.951 349.166, 243.501 348.759 C 243.052 348.351, 242.006 348.576, 241.178 349.259 C 239.852 350.352, 239.831 350.202, 241 348 C 242.216 345.710, 242.187 345.616, 240.664 346.872 C 239.749 347.627, 239 347.873, 239 347.419 C 239 346.966, 237.170 348.373, 234.933 350.547 C 230.410 354.943, 224.531 364.024, 223.472 368.250 C 222.853 370.720, 221 372.185, 221 370.204 C 221 366.892, 202.155 352.914, 197.860 353.040 C 197.112 353.062, 197.777 353.772, 199.338 354.618 C 200.900 355.464, 202.012 356.321, 201.811 356.522 C 201.610 356.724, 197.407 357.389, 192.472 358 C 187.538 358.612, 183.073 359.537, 182.550 360.056 C 181.250 361.348, 181.944 361.302, 193.269 359.338 L 203.039 357.645 206.767 361.073 L 210.496 364.500 207.561 361.250 C 205.947 359.462, 205.144 358, 205.778 358 C 209.149 358, 222.320 373.002, 221.295 375.673 C 220.793 376.983, 220.294 376.746, 218.597 374.390 C 217.451 372.800, 215.043 369.925, 213.245 368 L 209.976 364.500 213.353 370.217 C 217.760 377.678, 219.356 381.630, 218.677 383.400 C 218.374 384.190, 214.835 386.770, 210.813 389.134 C 199.195 395.962, 184.398 412.271, 182.052 420.833 C 181.345 423.413, 181.095 423.496, 174.367 423.375 C 166.235 423.230, 161.045 421.002, 155.454 415.258 C 149.083 408.713, 147.709 404.883, 148.211 395.067 C 148.571 388.004, 149.187 385.447, 151.719 380.500 C 155.659 372.800, 161.438 366.286, 169.271 360.716 C 179.077 353.741, 181.742 352.651, 189.188 352.572 C 193.855 352.522, 195.215 352.251, 193.688 351.677 C 187.522 349.358, 172.459 354.800, 162.787 362.841 C 155.740 368.699, 153.236 372.104, 149.308 381.168 C 145.978 388.851, 145.776 389.905, 146.265 397.031 C 146.895 406.225, 148.985 410.690, 155.750 417.296 C 161.073 422.494, 167.538 424.965, 175.867 424.988 C 179.872 424.999, 180.192 425.186, 179.740 427.250 C 179.469 428.488, 178.487 433.042, 177.558 437.372 L 175.869 445.243 178.684 450.872 C 181.012 455.524, 182.350 456.921, 186.404 458.931 C 193.320 462.358, 200.116 462.705, 207.308 459.998 C 213.703 457.592, 217.716 453.156, 222.460 443.250 C 223.843 440.363, 225.317 438.007, 225.737 438.015 C 226.157 438.023, 229.425 438.755, 233 439.643 C 243.341 442.209, 264.319 441.909, 275 439.043 C 286.056 436.077, 287.863 435.081, 294.740 428.170 C 302.303 420.570, 305.694 414.141, 307.089 404.758 C 308.469 395.479, 306.740 388.160, 302.031 383.343 L 298.984 380.227 313.790 380.751 C 333.896 381.464, 340.485 380.659, 347.162 376.673 C 356.280 371.229, 364.247 356.713, 362.075 349.500 C 361.578 347.850, 361.133 347.089, 361.086 347.809 C 361.039 348.529, 360.539 348.833, 359.975 348.485 C 359.412 348.136, 359.035 348.222, 359.139 348.676 C 360.334 353.894, 347.087 373.136, 339.811 376.750 C 334.139 379.567, 328.723 379.618, 311.314 377.016 C 298.831 375.151, 297.716 374.792, 290.395 370.273 C 282.836 365.607, 282.481 365.500, 274.581 365.500 C 266.732 365.500, 259.001 367.467, 260.694 369.034 C 261.137 369.444, 265.949 370.291, 271.387 370.915 C 282.221 372.160, 284.849 373.033, 280.990 374.108 C 279.081 374.639, 279.583 374.824, 283.143 374.900 C 288.313 375.011, 289 375.833, 289 381.904 C 289 385.860, 281.590 402.438, 278.780 404.768 C 276.557 406.612, 270.448 400.836, 270.696 397.125 C 270.793 395.680, 270.643 395.287, 270.362 396.250 C 269.741 398.386, 268.940 398.420, 264.346 396.500 C 259.248 394.370, 257.692 394.676, 262.500 396.863 C 264.700 397.864, 267.085 399.390, 267.799 400.253 C 268.908 401.593, 268.614 402.188, 265.799 404.309 C 262.523 406.777, 254.355 410, 251.375 410 C 249.951 410, 246.112 406.327, 246.033 404.890 C 246.015 404.554, 244.426 402.611, 242.502 400.571 C 239.623 397.518, 239.187 396.520, 240.037 394.931 C 240.629 393.825, 242.123 393, 243.535 393 C 245.795 393, 246.009 393.396, 246.102 397.750 L 246.204 402.500 247.187 399 C 247.727 397.075, 248.565 394.745, 249.049 393.821 C 249.571 392.823, 249.547 392.012, 248.989 391.821 C 248.473 391.645, 248.332 390.431, 248.675 389.125 C 249.267 386.870, 249.617 386.776, 255.587 387.255 C 259.727 387.587, 263.435 388.631, 266.438 390.309 L 271 392.859 270.884 390.180 C 270.820 388.706, 270.573 388.232, 270.334 389.127 C 269.960 390.533, 269.195 390.374, 264.700 387.955 C 261.840 386.416, 257.884 384.859, 255.909 384.497 C 251.443 383.676, 244 385.558, 244 387.507 C 244 388.408, 244.593 388.710, 245.601 388.323 C 246.781 387.870, 247.107 388.208, 246.839 389.604 C 246.592 390.888, 245.581 391.533, 243.704 391.601 C 242.181 391.657, 240.777 391.432, 240.585 391.101 C 239.568 389.353, 242.466 385.794, 246.702 383.590 C 249.341 382.217, 251.024 381.072, 250.441 381.047 C 249.859 381.021, 246.821 382.542, 243.690 384.428 L 237.998 387.855 238.589 385.178 C 240.411 376.917, 240.828 376.375, 247.864 373.132 C 251.601 371.410, 255.524 369.964, 256.580 369.921 C 257.636 369.878, 257.953 369.620, 257.284 369.349 C 256.615 369.078, 253.117 369.853, 249.510 371.071 C 245.903 372.289, 242.746 373.080, 242.494 372.827 C 241.761 372.094, 248.767 358.105, 252.121 353.606 L 255.182 349.500 251.529 353.488 C 249.520 355.682, 245.991 361.251, 243.688 365.864 L 239.500 374.252 233.190 376.603 L 226.880 378.954 227.554 376.727 C 229.160 371.426, 235.758 360.331, 240.190 355.483 C 243.682 351.662, 244.937 349.510, 244.780 347.612 C 244.540 344.711, 244.568 344.765, 243.736 345.598 M 287.380 348.195 C 287.037 348.748, 285.462 348.942, 283.879 348.626 C 282.180 348.286, 281 348.477, 281 349.092 C 281 349.666, 280.187 349.877, 279.194 349.561 C 278.200 349.246, 275.163 349.467, 272.444 350.052 C 265.689 351.505, 264.119 351.397, 261.638 349.304 C 259.510 347.509, 259.509 347.510, 261.305 349.640 C 262.298 350.817, 266.123 353.284, 269.805 355.122 C 278.295 359.360, 284.580 359.682, 288.419 356.076 C 291.633 353.057, 292.127 349.670, 288.932 352.561 C 286.655 354.622, 277.944 355.188, 272.500 353.630 L 269.500 352.771 273.468 351.362 C 275.651 350.587, 277.932 350.144, 278.537 350.376 C 279.142 350.608, 281.528 350.452, 283.840 350.029 C 286.152 349.607, 288.266 349.621, 288.538 350.061 C 288.963 350.750, 293.950 350.383, 294.727 349.607 C 294.876 349.457, 293.424 348.852, 291.500 348.261 C 289.166 347.545, 287.795 347.523, 287.380 348.195 M 350.088 347.924 C 349.311 348.416, 338.961 348.707, 327.088 348.571 C 296.308 348.217, 290.199 349.397, 317.700 350.383 C 329.910 350.821, 340.444 350.844, 341.107 350.434 C 341.771 350.023, 343.872 349.746, 345.775 349.818 C 347.679 349.889, 350.183 349.285, 351.341 348.474 C 353.582 346.904, 352.470 346.417, 350.088 347.924 M 267.663 367.737 C 267.302 368.320, 269.877 368.951, 274.041 369.300 C 278.427 369.668, 282.453 370.689, 284.865 372.044 C 286.978 373.232, 289.560 374.028, 290.603 373.814 C 292.127 373.502, 291.653 372.858, 288.196 370.544 C 284.614 368.146, 282.583 367.587, 276.080 367.211 C 271.548 366.948, 268.013 367.169, 267.663 367.737 M 269.500 376 C 267.682 376.781, 267.727 376.857, 270 376.830 C 271.375 376.814, 273.625 376.440, 275 376 C 277.438 375.219, 277.425 375.199, 274.500 375.170 C 272.850 375.154, 270.600 375.527, 269.500 376 M 234.250 379.645 C 232.252 380.482, 231 381.715, 231 382.848 C 231 384.832, 234.634 388.699, 235.595 387.738 C 236.264 387.069, 238.214 378.851, 237.785 378.510 C 237.628 378.386, 236.037 378.897, 234.250 379.645 M 290.667 379.667 C 290.300 380.033, 290 381.607, 290 383.163 C 290 387.898, 285.965 398.212, 282.043 403.500 C 278.566 408.189, 278.415 408.687, 279.623 411.500 C 282.411 417.999, 280.565 427.557, 276.055 429.970 C 272.838 431.692, 271.830 431.189, 273.473 428.681 C 275.427 425.699, 276.758 414, 275.142 414 C 274.514 414, 274 414.745, 274 415.655 C 274 418.566, 266.321 424.925, 261.964 425.622 C 257.151 426.391, 256.923 427.629, 261.250 429.509 C 263.038 430.286, 263.817 430.939, 262.982 430.961 C 262.147 430.982, 259.843 429.898, 257.861 428.551 C 254.579 426.322, 253.136 425.807, 246.327 424.438 C 240.829 423.332, 233.452 413.423, 233.848 407.678 C 233.972 405.874, 233.653 405.097, 232.962 405.523 C 232.368 405.891, 231.975 407.161, 232.090 408.346 C 232.204 409.530, 232.033 411.175, 231.709 412 C 230.976 413.869, 228 428.740, 228 430.535 C 228 431.262, 230.588 432.889, 233.750 434.151 C 238.936 436.221, 241.118 436.445, 256 436.437 C 277.806 436.424, 283.334 435.039, 290.829 427.711 C 293.761 424.845, 297.006 420.864, 298.041 418.864 C 300.957 413.234, 303.322 401.369, 302.654 395.727 C 301.644 387.195, 293.735 376.599, 290.667 379.667 M 263.441 381.309 C 264.509 381.964, 266.421 383.492, 267.691 384.705 C 268.961 385.917, 270 386.520, 270 386.043 C 270 384.819, 264.086 379.988, 262.673 380.059 C 262.028 380.091, 262.374 380.654, 263.441 381.309 M 226.390 384.427 C 225.703 386.217, 232.111 399.289, 233.161 398.239 C 235.246 396.154, 234.303 391.259, 231.031 387.188 C 227.262 382.498, 227.154 382.434, 226.390 384.427 M 210.452 392.639 C 198.166 400.007, 189.121 408.683, 185.330 416.737 C 183.975 419.617, 183.103 422.357, 183.393 422.827 C 184.042 423.877, 195.347 422.420, 198.139 420.926 C 199.257 420.327, 200.420 420.087, 200.724 420.391 C 201.521 421.188, 196.379 423.014, 190 424.199 C 186.975 424.762, 183.825 425.558, 183 425.968 C 181.061 426.932, 180.265 430.753, 180.118 439.800 C 179.971 448.886, 181.475 452.019, 187.756 455.711 C 194.142 459.465, 203.271 459.559, 210.563 455.946 C 214.632 453.930, 216.067 452.445, 218.722 447.500 C 220.494 444.200, 222.674 439.342, 223.567 436.705 L 225.190 431.911 220.535 426.934 C 215.804 421.876, 213 416.703, 213 413.032 C 213 410.131, 211.895 410.504, 208.725 414.478 C 207.198 416.392, 204.948 418.440, 203.725 419.031 C 201.911 419.907, 202.003 419.678, 204.217 417.791 C 207.389 415.090, 212 409.057, 212 407.610 C 212 407.059, 210.331 408.158, 208.292 410.054 L 204.584 413.500 208.235 409.310 C 210.244 407.005, 212.522 403.855, 213.297 402.310 C 214.821 399.275, 217.308 389.975, 216.747 389.413 C 216.558 389.225, 213.725 390.676, 210.452 392.639 M 222.986 390.036 C 222.979 390.841, 222.696 392.625, 222.358 394 L 221.743 396.500 224.090 394.254 C 226.308 392.131, 226.343 391.914, 224.718 390.290 C 223.323 388.894, 222.997 388.847, 222.986 390.036 M 236.098 398.149 C 233.775 404.814, 235.497 414.678, 239.576 418.063 C 240.570 418.888, 240.382 417.547, 238.915 413.359 C 237.441 409.147, 236.966 405.743, 237.229 401.250 C 237.430 397.813, 237.505 395, 237.395 395 C 237.285 395, 236.702 396.417, 236.098 398.149 M 224.743 398.627 C 221.320 400.420, 221.286 402.484, 224.599 407.360 C 226.877 410.713, 226.970 411.142, 225.349 410.839 C 224.332 410.650, 222.701 408.920, 221.725 406.997 C 219.871 403.342, 218.352 402.995, 216.250 405.746 C 214.718 407.751, 214.656 412.221, 216.088 417.377 C 217.265 421.619, 224.089 429.681, 225.673 428.702 C 226.972 427.899, 229.458 414.637, 228.686 412.625 C 228.357 411.767, 228.518 410.798, 229.044 410.473 C 229.570 410.148, 230 408.424, 230 406.641 C 230 404.858, 230.501 402.899, 231.113 402.287 C 233.794 399.606, 228.586 396.613, 224.743 398.627 M 267.116 406.005 C 265.355 408.197, 262.137 411.005, 259.965 412.245 C 257.794 413.485, 256.160 414.950, 256.336 415.500 C 256.949 417.418, 264.718 417.184, 268.750 415.127 C 274.497 412.195, 275.508 410.641, 274.014 407.034 C 271.848 401.806, 270.636 401.625, 267.116 406.005 M 239 409.930 C 239 412.465, 242.512 417.871, 245.184 419.450 C 248.876 421.630, 249.388 421.152, 247.689 417.112 C 246.388 414.017, 239 407.911, 239 409.930 M 248.663 415.821 C 248.925 416.823, 250.174 418.939, 251.437 420.524 C 253.712 423.377, 253.785 423.393, 258.988 422.192 C 265.535 420.681, 270.675 418.288, 271.393 416.417 C 271.804 415.348, 270.953 415.493, 268.011 416.995 C 262.866 419.619, 259.389 419.485, 254.500 416.474 C 249.737 413.540, 248.017 413.348, 248.663 415.821" stroke="none" fill="#444547" fill-rule="evenodd"/><path d="M 79.600 103.471 C 77.455 104.239, 75.324 105.460, 74.865 106.184 C 74.406 106.908, 74.024 107.132, 74.015 106.682 C 74.007 106.232, 72.645 106.829, 70.988 108.008 C 69.332 109.188, 68.240 110.580, 68.563 111.101 C 68.885 111.623, 68.580 111.926, 67.886 111.775 C 66.692 111.515, 59.896 120.387, 60.187 121.825 C 60.262 122.196, 59.800 123.767, 59.161 125.315 C 57.500 129.343, 57.500 315.657, 59.161 319.685 C 59.800 321.233, 60.250 322.837, 60.161 323.250 C 60.073 323.663, 60.477 324, 61.059 324 C 61.641 324, 61.875 324.394, 61.577 324.875 C 60.810 326.116, 66.071 333.089, 70.579 336.804 C 78.660 343.466, 78.302 343.427, 132 343.505 C 164.270 343.553, 168.202 343.476, 143.750 343.276 C 123.537 343.111, 106.988 342.644, 106.974 342.238 C 106.824 338.067, 114.621 287.758, 115.766 285.500 C 117.989 281.119, 121.005 278.059, 125.242 275.886 C 128.877 274.022, 132.301 273.975, 244.919 274.234 C 360.299 274.499, 360.867 274.510, 363.619 276.565 C 370.832 281.951, 371.920 284.499, 374.518 302.093 C 375.850 311.117, 377.191 320.525, 377.497 323 C 377.803 325.475, 378.488 330.200, 379.019 333.500 C 380.632 343.518, 381.141 342.877, 371.250 343.294 C 366.438 343.496, 371.725 343.591, 383 343.505 C 406.761 343.323, 409.911 342.583, 418.036 335.278 C 422.535 331.233, 427.034 325, 425.454 325 C 425.126 325, 425.526 324.332, 426.343 323.515 C 429.741 320.117, 430 312.927, 430 222.161 C 430 127.016, 429.940 125.683, 425.327 118.224 C 422.770 114.087, 416.783 108.016, 415.837 108.600 C 415.377 108.885, 415 108.651, 415 108.079 C 415 107.508, 413.088 106.019, 410.750 104.770 L 406.500 102.500 245 102.288 C 108.923 102.109, 82.886 102.295, 79.600 103.471 M 75.825 114.038 C 72.865 115.765, 71.685 121.310, 73.402 125.421 C 77.066 134.188, 90 131.351, 90 121.780 C 90 116.495, 86.511 112.989, 81.295 113.030 C 79.208 113.047, 76.746 113.501, 75.825 114.038 M 400.635 115.073 C 397.058 117.886, 396.889 124.607, 400.314 127.826 C 403.040 130.386, 410.312 130.831, 412.568 128.575 C 418.328 122.815, 414.795 113, 406.961 113 C 404.741 113, 402.219 113.826, 400.635 115.073 M 97.500 131.881 C 93.250 133.832, 89.514 137.337, 90.243 138.687 C 90.485 139.134, 89.882 140.259, 88.904 141.188 C 87.642 142.385, 86.973 142.530, 86.602 141.688 C 86.315 141.034, 86.329 141.712, 86.634 143.193 C 86.939 144.674, 86.883 146.381, 86.510 146.985 C 85.574 148.499, 85.318 248, 86.250 248 C 86.662 248, 87 248.475, 87 249.055 C 87 251.097, 90.868 258.571, 92.856 260.370 C 98.010 265.034, 93.945 264.910, 243.072 264.956 C 397.726 265.004, 389.435 265.331, 395.543 258.955 C 397.100 257.330, 398.055 256, 397.664 256 C 397.273 256, 397.643 254.949, 398.484 253.664 C 401.403 249.209, 402.041 236.207, 401.522 191.729 C 401.159 160.626, 400.654 147.102, 399.753 144.350 L 398.491 140.500 246.996 139.995 L 95.500 139.490 246.333 139.245 C 366.455 139.050, 397.086 138.745, 396.772 137.750 C 396.555 137.063, 394.217 135.037, 391.576 133.250 L 386.774 130 244.137 130.022 C 107.869 130.043, 101.321 130.126, 97.500 131.881 M 147.738 158.692 C 146.769 158.945, 146.276 159.637, 146.642 160.230 C 147.051 160.892, 146.838 161.018, 146.091 160.557 C 144.661 159.672, 141.351 162.410, 139.514 165.998 C 138.546 167.888, 138.265 175.898, 138.366 198.732 L 138.500 228.964 142.266 232.732 L 146.033 236.500 243.052 236.753 L 340.071 237.006 344.285 233.075 L 348.500 229.144 348.678 198.614 C 348.853 168.682, 348.814 168.019, 346.659 164.792 C 341.839 157.576, 348.239 157.990, 243.500 158.118 C 191.800 158.181, 148.707 158.439, 147.738 158.692 M 268.477 178.038 C 268.066 178.703, 260.995 179.032, 248.778 178.956 C 235.019 178.869, 229.515 179.166, 228.985 180.025 C 228.420 180.939, 228.081 180.940, 227.519 180.030 C 227.011 179.210, 223.620 178.939, 216.452 179.149 C 210.768 179.315, 206.297 179.630, 206.516 179.849 C 206.735 180.069, 205.974 181.010, 204.824 181.941 C 202.877 183.518, 202.743 184.555, 202.875 197.067 C 203.082 216.616, 199.455 215, 243.105 215 C 279.813 215, 282.759 214.676, 284.379 210.455 C 284.720 209.565, 285 203.298, 285 196.529 C 285 181.895, 284.346 180.594, 276.279 179.191 C 272.863 178.597, 271.268 178.625, 271.668 179.271 C 272.004 179.815, 271.653 180.032, 270.889 179.755 C 270.125 179.477, 269.613 178.744, 269.750 178.125 C 270.064 176.714, 269.326 176.663, 268.477 178.038 M 307.500 178.734 C 302.486 180.336, 296.372 186.907, 294.937 192.235 C 293.838 196.317, 294.441 202.926, 296.238 206.500 C 297.889 209.782, 302.285 214.037, 305.702 215.661 C 308.655 217.064, 316.987 217.154, 322.102 215.838 C 325.147 215.055, 330.071 210.060, 332.010 205.788 C 339.135 190.088, 324.056 173.444, 307.500 178.734 M 162.946 180.549 C 157.578 183.580, 154.273 189.017, 153.097 196.750 C 152.658 199.637, 152.591 202, 152.948 202 C 153.306 202, 154.127 203.463, 154.774 205.250 C 156.049 208.777, 161.642 215.433, 163.407 215.525 C 164.008 215.557, 166.412 216.144, 168.750 216.830 C 172.019 217.789, 173.981 217.813, 177.250 216.933 C 179.588 216.303, 181.659 215.884, 181.854 216 C 182.379 216.314, 190.916 207.786, 190.771 207.093 C 190.703 206.767, 191.207 204.537, 191.892 202.137 C 193.311 197.169, 192.552 190.372, 190.293 187.813 C 189.474 186.885, 189.107 185.637, 189.476 185.038 C 189.846 184.440, 189.778 184.066, 189.324 184.206 C 188.329 184.515, 180.838 179.496, 181.420 178.911 C 181.646 178.685, 178.606 178.383, 174.665 178.239 C 168.529 178.015, 166.846 178.347, 162.946 180.549 M 404.270 308.703 C 398.421 309.833, 395.857 319.638, 400.314 323.826 C 403.532 326.848, 409.917 326.809, 412.694 323.750 C 417.361 318.611, 415.941 311.221, 409.881 309.108 C 408.132 308.499, 406.656 308.061, 406.601 308.136 C 406.545 308.211, 405.496 308.466, 404.270 308.703 M 75.338 310.476 C 72.845 312.222, 71.484 318.167, 72.951 320.908 C 74.991 324.720, 77.114 326, 81.397 326 C 86.795 326, 90.200 322.790, 90.200 317.702 C 90.200 312.517, 86.701 309, 81.542 309 C 79.289 309, 76.497 309.664, 75.338 310.476 M 205.797 343.745 C 210.361 343.930, 217.561 343.929, 221.797 343.742 C 226.034 343.555, 222.300 343.404, 213.500 343.405 C 204.700 343.406, 201.234 343.559, 205.797 343.745 M 287 344.465 C 287 346.316, 292.826 346.558, 311.500 345.485 L 332.500 344.279 309.750 344.139 C 297.238 344.063, 287 344.209, 287 344.465 M 282 347 C 282 348.253, 283.061 348.253, 285 347 C 286.213 346.216, 286.069 346.028, 284.250 346.015 C 283.012 346.007, 282 346.450, 282 347 M 213.500 365 C 215.648 367.200, 217.631 369, 217.906 369 C 218.181 369, 216.648 367.200, 214.500 365 C 212.352 362.800, 210.369 361, 210.094 361 C 209.819 361, 211.352 362.800, 213.500 365 M 287.741 371.167 C 288.424 372.002, 288.783 372.884, 288.539 373.128 C 288.295 373.372, 288.974 373.571, 290.048 373.571 C 292.527 373.571, 292.528 373.573, 289.250 371.440 C 287.259 370.145, 286.843 370.069, 287.741 371.167 M 145.252 394.500 C 145.263 396.700, 145.468 397.482, 145.707 396.238 C 145.946 394.994, 145.937 393.194, 145.687 392.238 C 145.437 391.282, 145.241 392.300, 145.252 394.500 M 209.009 414.489 C 208.329 415.308, 207.449 415.778, 207.053 415.533 C 206.657 415.288, 206.333 415.751, 206.333 416.562 C 206.333 417.655, 206.936 417.469, 208.667 415.843 C 209.950 414.638, 211 413.505, 211 413.326 C 211 412.601, 210.177 413.082, 209.009 414.489 M 155 417.500 C 156.866 419.425, 158.617 421, 158.892 421 C 159.167 421, 157.866 419.425, 156 417.500 C 154.134 415.575, 152.383 414, 152.108 414 C 151.833 414, 153.134 415.575, 155 417.500 M 175.250 425.689 C 176.213 425.941, 177.787 425.941, 178.750 425.689 C 179.713 425.438, 178.925 425.232, 177 425.232 C 175.075 425.232, 174.287 425.438, 175.250 425.689 M 196.250 458.689 C 197.213 458.941, 198.787 458.941, 199.750 458.689 C 200.713 458.438, 199.925 458.232, 198 458.232 C 196.075 458.232, 195.287 458.438, 196.250 458.689" stroke="none" fill="#757985" fill-rule="evenodd"/><path d="M 87 197.483 L 87 217 112 217 L 137 217 137.111 200 C 137.172 190.650, 137.272 181.988, 137.334 180.750 L 137.445 178.500 112.223 178.233 L 87 177.966 87 197.483 M 350.002 197.250 L 350.004 216.500 375.002 216.500 L 400 216.500 400 197.250 L 400 178 375 178 L 350 178 350.002 197.250 M 104.271 187.802 C 97.437 188.196, 96 190.142, 96 199 C 96 209.640, 96.524 210, 112.022 210 C 123.760 210, 125.023 209.825, 125.965 208.066 C 127.437 205.316, 127.277 191.734, 125.750 189.796 C 124.429 188.119, 114.597 187.206, 104.271 187.802" stroke="none" fill="#f5ebe2" fill-rule="evenodd"/><path d="M 87.785 142.250 C 86.918 143.767, 86.393 150.035, 86.171 161.500 L 85.842 178.500 111.921 178.500 L 138 178.500 138 173.398 C 138 167.235, 140.880 162.334, 146.020 159.752 C 149.259 158.124, 156.002 158.003, 243.500 158.003 C 330.998 158.003, 337.741 158.124, 340.980 159.752 C 346.385 162.467, 348.985 167.170, 349.079 174.398 C 349.122 177.754, 349.385 179.938, 349.662 179.250 C 350.047 178.297, 356.072 178, 375.014 178 L 399.861 178 400.335 180.250 C 400.596 181.488, 400.740 173.950, 400.655 163.500 C 400.546 150.107, 400.121 143.836, 399.215 142.250 L 397.930 140 243.500 140 L 89.070 140 87.785 142.250" stroke="none" fill="#b4e4e4" fill-rule="evenodd"/><path d="M 164.250 101.750 C 207.563 101.894, 278.438 101.894, 321.750 101.750 C 365.063 101.606, 329.625 101.488, 243 101.488 C 156.375 101.488, 120.938 101.606, 164.250 101.750 M 57.479 222 C 57.479 272.325, 57.601 292.913, 57.750 267.750 C 57.898 242.588, 57.898 201.413, 57.750 176.250 C 57.601 151.088, 57.479 171.675, 57.479 222 M 86.458 214 C 86.489 239.775, 86.836 250.253, 87.725 252.250 L 88.950 255 243.440 255 L 397.930 255 399.215 252.750 C 400.132 251.144, 400.542 244.630, 400.647 230 C 400.727 218.725, 400.502 211.075, 400.147 213 L 399.500 216.500 374.752 216.500 L 350.004 216.500 349.794 198 L 349.584 179.500 349.042 204.324 L 348.500 229.148 344.273 233.088 L 340.046 237.029 243.039 236.765 L 146.033 236.500 142.266 232.736 L 138.500 228.972 137.950 209.236 C 137.431 190.623, 137.388 190.282, 137.200 203.250 L 137 217 112.022 217 L 87.043 217 86.730 197.750 C 86.558 187.162, 86.436 194.475, 86.458 214 M 400.392 195 C 400.392 202.425, 400.549 205.463, 400.742 201.750 C 400.934 198.037, 400.934 191.963, 400.742 188.250 C 400.549 184.537, 400.392 187.575, 400.392 195 M 267.250 432.689 C 268.212 432.941, 269.788 432.941, 270.750 432.689 C 271.712 432.438, 270.925 432.232, 269 432.232 C 267.075 432.232, 266.288 432.438, 267.250 432.689" stroke="none" fill="#edc0bf" fill-rule="evenodd"/><path d="M 75.825 114.038 C 72.865 115.765, 71.685 121.310, 73.402 125.421 C 77.066 134.188, 90 131.351, 90 121.780 C 90 116.495, 86.511 112.989, 81.295 113.030 C 79.208 113.047, 76.746 113.501, 75.825 114.038 M 400.635 115.073 C 397.058 117.886, 396.889 124.607, 400.314 127.826 C 403.040 130.386, 410.312 130.831, 412.568 128.575 C 418.328 122.815, 414.795 113, 406.961 113 C 404.741 113, 402.219 113.826, 400.635 115.073 M 97.500 131.881 C 93.152 133.877, 89.492 137.369, 90.329 138.723 C 90.618 139.190, 92.124 139.480, 93.677 139.367 C 95.230 139.255, 164.150 139.126, 246.833 139.081 C 366.614 139.017, 397.086 138.746, 396.772 137.750 C 396.555 137.063, 394.217 135.037, 391.576 133.250 L 386.774 130 244.137 130.022 C 107.869 130.043, 101.321 130.126, 97.500 131.881 M 307.500 178.734 C 302.486 180.336, 296.372 186.907, 294.937 192.235 C 293.025 199.333, 295.336 207.311, 300.661 212 C 305.355 216.133, 307.683 217, 314.093 217 C 319.064 217, 320.108 216.724, 319.651 215.532 C 319.341 214.725, 319.529 213.791, 320.068 213.458 C 320.608 213.124, 320.926 213.427, 320.775 214.130 C 320.304 216.323, 323.472 215.622, 326.841 212.788 C 334.988 205.932, 336.145 193.079, 329.342 184.995 C 324.270 178.967, 315.046 176.322, 307.500 178.734 M 162.946 180.549 C 157.578 183.580, 154.273 189.017, 153.097 196.750 C 152.658 199.637, 152.591 202, 152.948 202 C 153.306 202, 154.147 203.463, 154.819 205.250 C 156.460 209.622, 158.462 212.098, 160.612 212.414 C 161.591 212.557, 162.563 213.310, 162.772 214.087 C 163.073 215.205, 162.912 215.187, 162 214 C 160.981 212.673, 160.895 212.673, 161.256 213.996 C 161.480 214.818, 162.302 215.512, 163.082 215.537 C 163.862 215.562, 166.412 216.144, 168.750 216.830 C 174.402 218.488, 180.946 216.930, 180.723 213.979 C 180.581 212.085, 179.670 211.518, 177.500 211.973 C 172.487 213.024, 169.688 212.554, 165.627 209.978 C 163.185 208.429, 160.887 206.219, 160.521 205.067 C 160.155 203.914, 159.544 203.164, 159.163 203.399 C 158.782 203.635, 158.471 201.166, 158.471 197.914 C 158.471 194.661, 158.815 192, 159.235 192 C 159.656 192, 160 191.490, 160 190.866 C 160 189.239, 164.917 185.144, 168.944 183.417 C 171.427 182.352, 173.148 182.205, 175.109 182.888 C 176.606 183.410, 178.068 183.598, 178.360 183.307 C 178.932 182.735, 183.368 187.183, 185.649 190.616 C 187.540 193.462, 187.640 205, 185.774 205 C 185.284 205, 185.109 205.367, 185.387 205.817 C 185.664 206.266, 184.543 207.430, 182.895 208.403 C 180.808 209.635, 180.192 210.526, 180.864 211.336 C 181.844 212.518, 182 213.048, 182 215.208 C 182 215.873, 184.020 214.434, 186.489 212.011 C 189.665 208.894, 190.616 207.374, 189.739 206.818 C 188.774 206.204, 188.789 206.027, 189.809 206.015 C 190.529 206.007, 190.864 205.588, 190.553 205.085 C 190.242 204.582, 190.553 203.982, 191.244 203.752 C 192.093 203.469, 192.477 201.196, 192.428 196.734 C 192.357 190.247, 190.811 186.381, 188.787 187.632 C 188.244 187.967, 188.369 187.175, 189.064 185.871 C 190.257 183.633, 190.223 183.584, 188.472 185 C 187.451 185.825, 186.939 185.962, 187.334 185.304 C 187.775 184.568, 186.695 183.185, 184.531 181.715 C 182.595 180.399, 181.195 179.138, 181.420 178.911 C 181.646 178.685, 178.606 178.383, 174.665 178.239 C 168.529 178.015, 166.846 178.347, 162.946 180.549 M 271.760 179.817 C 272.118 180.750, 271.924 181.071, 271.251 180.655 C 270.226 180.022, 269.901 180.876, 268.461 188 C 267.042 195.015, 266.908 198.997, 267.921 204 C 268.978 209.218, 269.606 211.881, 270.042 213 C 270.149 213.275, 270.184 213.838, 270.118 214.250 C 270.053 214.662, 271.822 215, 274.050 215 C 278.621 215, 283.450 212.875, 284.379 210.455 C 284.720 209.565, 285 203.298, 285 196.529 C 285 181.918, 284.338 180.593, 276.340 179.203 C 271.915 178.434, 271.263 178.521, 271.760 179.817 M 206.540 179.874 C 206.773 180.106, 206.013 181.122, 204.851 182.130 C 202.883 183.836, 202.749 184.862, 202.905 197.088 C 203.025 206.566, 203.446 210.588, 204.417 211.560 C 205.157 212.299, 206.113 212.589, 206.541 212.202 C 206.970 211.816, 207.026 212.015, 206.666 212.645 C 205.630 214.457, 208.453 215, 218.915 215 C 226 215, 228.692 214.658, 228.759 213.750 C 228.810 213.063, 229.222 211.150, 229.676 209.500 C 231.079 204.392, 230.675 185.518, 229.121 183.646 C 228.370 182.741, 228.090 182, 228.500 182 C 228.910 182, 228.657 181.292, 227.938 180.426 C 226.872 179.141, 224.743 178.907, 216.374 179.151 C 210.733 179.316, 206.307 179.641, 206.540 179.874 M 304.620 187.079 C 302.079 189.707, 299.923 192.901, 299.829 194.178 C 299.381 200.253, 299.660 201.759, 301.881 205.250 C 303.193 207.313, 304.543 209.010, 304.883 209.022 C 305.222 209.034, 306.625 209.974, 308 211.109 C 309.375 212.245, 309.868 212.840, 309.095 212.432 C 308.168 211.943, 307.934 212.084, 308.406 212.848 C 308.876 213.608, 309.707 213.692, 310.825 213.094 C 311.762 212.592, 313.647 212.217, 315.014 212.260 C 318.560 212.371, 320.094 211.795, 322.895 209.304 C 324.253 208.095, 325.701 207.315, 326.113 207.570 C 326.525 207.824, 327.187 207.506, 327.585 206.862 C 328.037 206.131, 327.876 205.959, 327.155 206.405 C 325.646 207.337, 325.662 205.738, 327.176 204.224 C 328.603 202.797, 328.471 188.856, 327.036 189.314 C 326.741 189.408, 325.023 188.164, 323.219 186.549 C 319.910 183.589, 319.451 183.418, 312.870 182.699 C 309.624 182.344, 308.751 182.808, 304.620 187.079 M 401.370 203 C 401.370 208.775, 401.535 211.137, 401.737 208.250 C 401.939 205.363, 401.939 200.637, 401.737 197.750 C 401.535 194.863, 401.370 197.225, 401.370 203 M 401.365 229.500 C 401.368 235, 401.536 237.122, 401.738 234.216 C 401.941 231.311, 401.939 226.811, 401.734 224.216 C 401.528 221.622, 401.363 224, 401.365 229.500 M 90 256.418 C 90 258.508, 95.541 262.778, 99.781 263.956 C 102.257 264.644, 150.321 264.991, 243.624 264.994 C 367.205 264.999, 384.263 264.818, 388.110 263.461 C 392.711 261.838, 398.288 257.275, 397.409 255.853 C 397.124 255.391, 327.840 255.013, 243.445 255.013 C 112.349 255.013, 90 255.218, 90 256.418 M 125 275.940 C 120.960 278.097, 117.931 281.233, 115.766 285.500 C 114.340 288.311, 106.331 341.664, 107.204 342.537 C 107.425 342.758, 132.782 342.980, 163.553 343.029 C 194.324 343.079, 224.311 343.374, 230.191 343.684 L 240.883 344.250 239.230 346.875 L 237.578 349.500 239.935 347.500 L 242.291 345.500 240.982 348 C 239.830 350.200, 239.854 350.351, 241.178 349.259 C 242.006 348.576, 243.052 348.351, 243.501 348.759 C 243.951 349.166, 244.042 348.727, 243.703 347.782 C 243.364 346.837, 243.529 345.791, 244.068 345.458 C 244.608 345.124, 244.985 345.222, 244.906 345.676 C 244.509 347.961, 245.116 350.046, 246.016 349.490 C 246.575 349.144, 246.820 348.518, 246.560 348.098 C 246.301 347.677, 246.631 347.257, 247.294 347.163 C 252.842 346.378, 254.932 346.302, 254.563 346.898 C 254.326 347.281, 254.528 348.236, 255.012 349.020 C 255.744 350.205, 256.005 350.150, 256.564 348.693 C 257.162 347.137, 257.363 347.113, 258.368 348.482 C 259.595 350.153, 264.449 351.535, 263.458 349.931 C 263.130 349.401, 262.474 349.207, 262 349.500 C 261.526 349.793, 260.885 349.622, 260.575 349.121 C 260.265 348.620, 260.712 347.941, 261.569 347.612 C 263.940 346.702, 262.380 345.205, 259.613 345.734 C 258.274 345.990, 256.351 345.718, 255.339 345.130 C 253.840 344.259, 254.359 344.055, 258.143 344.030 C 261.369 344.009, 262.962 344.458, 263.362 345.500 C 263.678 346.325, 264.653 347, 265.528 347 C 266.402 347, 266.909 346.663, 266.654 346.250 C 266.399 345.837, 268.960 345.594, 272.345 345.709 C 275.730 345.824, 280.274 345.936, 282.441 345.959 C 286.124 345.997, 286.255 346.096, 284.441 347.468 C 282.531 348.913, 282.533 348.937, 284.550 348.968 C 285.677 348.986, 287.206 348.438, 287.947 347.750 C 289.036 346.739, 289.140 346.768, 288.492 347.905 C 287.968 348.823, 288.074 349.072, 288.800 348.624 C 289.409 348.247, 291.150 348.250, 292.668 348.631 C 295.154 349.255, 295.233 349.400, 293.464 350.092 C 292.384 350.514, 298.025 350.800, 306 350.727 L 320.500 350.595 308 350 C 291.868 349.233, 298.739 348.712, 327 348.559 C 339.375 348.493, 350.400 348.054, 351.500 347.584 L 353.500 346.731 351.500 348.334 C 350.400 349.215, 350.030 349.951, 350.679 349.968 C 351.327 349.986, 352.564 349.293, 353.429 348.429 C 354.293 347.564, 355 347.169, 355 347.551 C 355 347.933, 355.709 347.656, 356.576 346.937 C 357.882 345.853, 358.304 345.873, 359.035 347.056 C 359.557 347.901, 359.526 348.874, 358.958 349.442 C 358.431 349.969, 358.003 350.873, 358.007 351.450 C 358.010 352.028, 358.871 351.199, 359.919 349.610 C 361.587 347.079, 361.879 346.954, 362.264 348.610 C 362.505 349.649, 362.505 348.813, 362.264 346.750 L 361.824 343 370.912 343 C 381.224 343, 380.655 343.666, 379.019 333.500 C 378.488 330.200, 377.803 325.475, 377.497 323 C 377.191 320.525, 375.850 311.117, 374.518 302.093 C 371.920 284.499, 370.832 281.951, 363.619 276.565 C 360.866 274.509, 360.341 274.499, 244.677 274.285 C 132.896 274.078, 128.368 274.141, 125 275.940 M 240.077 284.610 C 234.733 286.857, 233.689 293.689, 238.025 298.025 C 240.768 300.768, 245.233 300.516, 248.923 297.411 C 252.568 294.344, 252.965 290.496, 250.023 286.756 C 247.579 283.650, 244.130 282.905, 240.077 284.610 M 174.091 298.903 C 168.851 304.512, 172.926 313.512, 180.607 313.294 C 187.242 313.106, 191.412 306.631, 188.511 301.021 C 185.479 295.157, 178.542 294.138, 174.091 298.903 M 300.455 298.455 C 294.916 303.993, 298.691 313.200, 306.500 313.200 C 311.635 313.200, 315 309.867, 315 304.780 C 315 296.872, 305.966 292.943, 300.455 298.455 M 144.500 308.924 C 141.122 310.343, 138.810 313.704, 138.707 317.348 C 138.596 321.259, 140.054 323.459, 144.164 325.585 C 146.610 326.850, 147.419 326.852, 150.406 325.604 C 154.334 323.962, 156 321.437, 156 317.122 C 156 311.520, 149.445 306.847, 144.500 308.924 M 337.270 308.715 C 332.353 309.638, 329.432 317.201, 332.080 322.150 C 333.595 324.980, 339.310 327.214, 342.202 326.108 C 352.836 322.042, 348.461 306.616, 337.270 308.715 M 404.270 308.703 C 398.421 309.833, 395.857 319.638, 400.314 323.826 C 403.532 326.848, 409.917 326.809, 412.694 323.750 C 417.361 318.611, 415.941 311.221, 409.881 309.108 C 408.132 308.499, 406.656 308.061, 406.601 308.136 C 406.545 308.211, 405.496 308.466, 404.270 308.703 M 75.338 310.476 C 72.845 312.222, 71.484 318.167, 72.951 320.908 C 74.991 324.720, 77.114 326, 81.397 326 C 86.795 326, 90.200 322.790, 90.200 317.702 C 90.200 312.517, 86.701 309, 81.542 309 C 79.289 309, 76.497 309.664, 75.338 310.476 M 287.439 344.902 C 288.222 346.169, 294 348.075, 294 347.066 C 294 346.609, 302.663 345.807, 313.250 345.282 L 332.500 344.329 309.691 344.164 C 296.355 344.068, 287.113 344.374, 287.439 344.902 M 278.453 348.924 C 278.767 349.433, 278.456 350.043, 277.762 350.281 C 277.068 350.518, 277.189 350.621, 278.030 350.508 C 278.872 350.395, 281.931 350.606, 284.828 350.978 C 287.725 351.350, 290.333 351.271, 290.622 350.802 C 290.912 350.334, 290.778 350.015, 290.324 350.094 C 289.871 350.172, 289.050 350.138, 288.500 350.017 C 287.950 349.896, 286.038 349.877, 284.250 349.975 C 282.462 350.073, 281 349.669, 281 349.077 C 281 348.484, 280.298 348, 279.441 348 C 278.584 348, 278.139 348.416, 278.453 348.924 M 342.500 350.068 C 340.871 350.713, 341.103 350.872, 343.750 350.930 C 347.130 351.003, 347.895 350.550, 345.750 349.745 C 345.063 349.488, 343.600 349.633, 342.500 350.068 M 317.768 381.725 C 319.565 381.947, 322.265 381.943, 323.768 381.715 C 325.271 381.486, 323.800 381.304, 320.500 381.310 C 317.200 381.315, 315.971 381.502, 317.768 381.725 M 242.149 386.664 C 240.548 388.403, 240.997 389.238, 242.901 388.061 C 243.639 387.605, 244.076 386.774, 243.872 386.214 C 243.657 385.626, 242.931 385.815, 242.149 386.664 M 245 399.500 C 245 401.425, 245.360 403, 245.799 403 C 246.239 403, 246.415 401.425, 246.190 399.500 C 245.965 397.575, 245.605 396, 245.391 396 C 245.176 396, 245 397.575, 245 399.500 M 274.829 418 C 275.038 420.200, 275.388 422, 275.605 422 C 275.822 422, 276 420.200, 276 418 C 276 415.800, 275.651 414, 275.224 414 C 274.797 414, 274.619 415.800, 274.829 418" stroke="none" fill="#6b6f7a" fill-rule="evenodd"/></svg>