<svg xmlns="http://www.w3.org/2000/svg" width="300" height="150" viewBox="0 0 300 150" version="1.1"><path d="M 242.193 23.529 C 240.437 26.020, 239 28.270, 239 28.529 C 239 28.788, 240.463 28.992, 242.250 28.982 C 244.821 28.968, 246.208 28.111, 248.893 24.879 C 251.601 21.618, 252.005 20.617, 250.893 19.913 C 247.853 17.988, 245.371 19.020, 242.193 23.529 M 36 63.419 L 36 94 52.462 94 C 71.583 94, 77.279 92.549, 84.580 85.819 C 91.097 79.812, 93.375 74.196, 93.429 64 C 93.483 53.693, 90.892 46.942, 84.753 41.396 C 77.057 34.443, 73.674 33.546, 53.750 33.171 L 36 32.838 36 63.419 M 107 63.500 L 107 94 131 94 L 155 94 155 91 L 155 88 135 88 L 115 88 115 77 L 115 66 132 66 L 149 66 149 62.500 L 149 59 132 59 L 115 59 115 49.500 L 115 40 134.500 40 L 154 40 154 36.500 L 154 33 130.500 33 L 107 33 107 63.500 M 167 63.500 L 167 94 188.500 94 L 210 94 210 91 L 210 88 192.500 88 L 175 88 175 60.500 L 175 33 171 33 L 167 33 167 63.500 M 220 63.500 L 220 94 244 94 L 268 94 268 91 L 268 88 247.500 88 L 227 88 227 77 L 227 66 244.563 66 L 262.127 66 261.813 62.750 L 261.500 59.500 244.616 59 L 227.732 58.500 227.491 49.271 L 227.250 40.041 246.875 39.771 L 266.500 39.500 266.813 36.250 L 267.127 33 243.563 33 L 220 33 220 63.500 M 44 64.039 L 44 88.275 55.750 87.735 C 73.234 86.932, 79.269 84.023, 83.747 74.242 C 85.877 69.590, 86.179 67.748, 85.765 61.959 C 85.131 53.098, 81.756 47.117, 75.223 43.277 C 70.816 40.686, 69.614 40.477, 57.250 40.152 L 44 39.804 44 64.039 M 79.292 110.750 C 78.938 111.713, 77.415 115.418, 75.909 118.983 C 74.403 122.549, 73.384 125.812, 73.644 126.233 C 74.486 127.595, 75.671 127.052, 76.651 124.856 C 78.157 121.481, 82.995 121.412, 85.706 124.725 C 89.421 129.268, 89.514 126.411, 85.939 117.494 C 82.625 109.226, 80.608 107.180, 79.292 110.750 M 99.244 110.250 C 99.470 110.938, 100.857 111.642, 102.327 111.816 C 104.959 112.128, 105 112.248, 105 119.650 C 105 125.217, 105.324 127.059, 106.250 126.753 C 107.056 126.487, 107.604 123.795, 107.794 119.170 C 108.075 112.303, 108.191 112, 110.544 112 C 112.060 112, 113 111.426, 113 110.500 C 113 109.308, 111.546 109, 105.917 109 C 100.698 109, 98.941 109.329, 99.244 110.250 M 125.211 117.750 L 125.500 126.500 130.917 126.500 C 134.361 126.500, 136.485 126.045, 136.750 125.250 C 137.043 124.371, 135.806 124, 132.583 124 C 128.361 124, 128 123.803, 128 121.500 C 128 119.241, 128.394 119, 132.083 119 C 137.294 119, 136.948 116.635, 131.673 116.190 C 128.853 115.951, 128 115.442, 128 113.997 C 128 112.504, 128.863 112.051, 132.172 111.807 C 134.467 111.638, 136.530 110.938, 136.756 110.250 C 137.054 109.341, 135.495 109, 131.044 109 L 124.922 109 125.211 117.750 M 149 118 L 149 127 154.500 127 C 158.722 127, 160 126.652, 160 125.500 C 160 124.417, 158.889 124, 156 124 L 152 124 152 116.500 C 152 110.500, 151.700 109, 150.500 109 C 149.278 109, 149 110.667, 149 118 M 172 118.083 C 172 124.904, 172.311 127.064, 173.250 126.753 C 174.091 126.474, 174.595 123.500, 174.789 117.669 C 175.031 110.407, 174.828 109, 173.539 109 C 172.267 109, 172 110.574, 172 118.083 M 188.211 117.750 L 188.500 126.500 193.750 126.500 C 199.888 126.500, 200.908 124.643, 195.018 124.193 C 191.538 123.926, 191 123.566, 191 121.503 C 191 119.472, 191.553 119.075, 194.750 118.810 C 196.813 118.640, 198.500 118.050, 198.500 117.500 C 198.500 116.950, 196.813 116.360, 194.750 116.190 C 191.855 115.950, 191 115.450, 191 113.997 C 191 112.504, 191.863 112.051, 195.172 111.807 C 197.467 111.638, 199.530 110.938, 199.756 110.250 C 200.054 109.341, 198.495 109, 194.044 109 L 187.922 109 188.211 117.750 M 212 118.083 C 212 124.902, 212.312 127.064, 213.250 126.756 C 213.938 126.531, 214.643 124.892, 214.818 123.115 C 215.109 120.151, 215.395 119.909, 218.260 120.192 C 220.844 120.447, 221.530 121.063, 222.221 123.750 C 222.688 125.565, 223.707 127, 224.529 127 C 226.373 127, 226.379 125.844, 224.560 121.490 C 223.707 119.447, 223.503 117.807, 224.060 117.463 C 225.402 116.633, 225.223 111.623, 223.800 110.200 C 223.140 109.540, 220.215 109, 217.300 109 L 212 109 212 118.083 M 215 114.563 C 215 116.853, 215.347 117.093, 218.250 116.813 C 220.741 116.573, 221.575 115.975, 221.820 114.250 C 222.100 112.277, 221.699 112, 218.570 112 C 215.405 112, 215 112.291, 215 114.563 M 79.710 117 C 79.322 118.483, 79.680 119, 81.094 119 C 83.198 119, 83.270 118.867, 82.393 116.582 C 81.559 114.408, 80.338 114.599, 79.710 117" stroke="none" fill="#727272" fill-rule="evenodd"/></svg>