<svg xmlns="http://www.w3.org/2000/svg" width="300" height="150" viewBox="0 0 300 150" version="1.1"><path d="M 126.028 22.141 C 105.246 25.585, 83.283 37.817, 77.377 49.238 C 75.443 52.978, 76.294 57, 79.019 57 C 80.530 57, 81 56.324, 81 54.150 C 81 47.673, 90.942 38.201, 104.092 32.149 C 116.972 26.221, 123.813 24.640, 136.500 24.662 C 149.937 24.684, 156.889 26.921, 162.368 32.986 C 174.746 46.686, 164.558 66.864, 139.316 78.646 C 135.364 80.491, 131.877 82, 131.566 82 C 131.254 82, 131 72.148, 131 60.107 C 131 42.429, 130.735 38.112, 129.622 37.685 C 126.421 36.457, 126 39.243, 126 61.633 C 126 82.987, 125.921 83.890, 124 84.500 C 122.900 84.849, 122 85.554, 122 86.067 C 122 86.580, 122.900 87, 124 87 C 125.908 87, 126 87.667, 126 101.418 C 126 116.457, 126.362 119, 128.500 119 C 130.654 119, 131 116.443, 131 100.527 L 131 85.217 133.750 84.554 C 135.262 84.190, 140.631 81.896, 145.681 79.457 C 174.383 65.594, 181.840 40.120, 161.179 26.511 C 153.685 21.575, 139.835 19.853, 126.028 22.141 M 244.664 34.289 C 241.022 37.026, 239.746 43.841, 239.245 63.232 L 238.760 81.964 232.720 84.982 C 225.876 88.402, 223.813 88.670, 221.571 86.429 C 218.879 83.736, 219.700 82.072, 224.067 81.373 C 232.117 80.086, 232.735 75, 224.842 75 C 221.890 75, 220.384 75.628, 218.714 77.554 C 211.592 85.768, 207.728 89.102, 205.671 88.809 C 203.696 88.528, 203.473 87.825, 203.201 81.012 C 202.745 69.577, 203.035 69.003, 209.269 68.986 C 215.262 68.971, 219 68.163, 219 66.883 C 219 66.398, 215.652 66, 211.560 66 L 204.121 66 203.810 62.258 C 203.593 59.643, 202.973 58.417, 201.750 58.185 C 200.463 57.941, 200 58.512, 200 60.345 C 200 64.605, 198.966 66, 195.810 66 C 192.070 66, 192.505 68.364, 196.327 68.816 C 198.878 69.118, 199 69.396, 199 74.881 C 199 80.441, 198.888 80.683, 195.580 82.261 C 192.237 83.855, 192.123 83.837, 190.580 81.481 C 188.543 78.372, 188.588 78, 191 78 C 193.844 78, 193.480 76.159, 190.487 75.407 C 187.250 74.595, 185.197 76.337, 184.808 80.226 C 184.414 84.158, 179.455 88.322, 177.954 85.981 C 177.431 85.167, 177.115 82.475, 177.252 80 C 177.423 76.894, 177.113 75.531, 176.250 75.600 C 175.563 75.655, 172.940 75.767, 170.423 75.850 C 164.507 76.044, 160 80.097, 160 85.223 C 160 89.453, 161.507 91, 165.627 91 C 167.845 91, 169.447 90.247, 170.746 88.595 C 172.570 86.277, 172.681 86.259, 173.827 88.095 C 175.703 91.098, 180.594 90.560, 184.199 86.955 C 187.730 83.423, 188.920 83.667, 186.462 87.418 C 184.335 90.663, 185.853 93, 190.087 93 C 193.271 93, 195.197 90.468, 194.382 87.353 C 194.012 85.938, 194.574 85.060, 196.374 84.240 C 198.734 83.164, 198.899 83.278, 199.190 86.200 C 199.384 88.145, 200.479 90.030, 202.125 91.253 C 205.168 93.514, 207.331 92.810, 212.577 87.852 L 215.653 84.944 216.793 87.444 C 218.997 92.282, 227.593 92.081, 234.768 87.024 C 237.128 85.361, 239.222 84, 239.421 84 C 239.620 84, 240.092 85.237, 240.470 86.750 C 242.626 95.392, 251.327 95.147, 255.875 86.316 C 258.687 80.855, 256.480 80.659, 252.760 86.038 C 249.377 90.928, 246.621 91.220, 245.098 86.851 C 243.504 82.279, 243.687 80.728, 246.885 71.667 C 251.386 58.913, 253.434 41.547, 250.977 36.957 C 249.423 34.053, 246.578 32.851, 244.664 34.289 M 246.157 40.543 C 245.590 42.719, 244.856 48.775, 244.526 54 C 244.196 59.225, 243.706 65.525, 243.438 68 C 242.755 74.306, 244.389 71.196, 246.329 62.500 C 248.535 52.611, 249.473 40.667, 248.220 38.429 C 247.325 36.829, 247.052 37.109, 246.157 40.543 M 95.920 69.673 C 83.719 80.454, 75.066 89.392, 70.942 95.473 C 68.666 98.830, 65.610 102.262, 64.152 103.100 C 62.356 104.132, 61.122 106.049, 60.329 109.036 C 58.886 114.476, 59.343 115.303, 63.312 114.431 C 67.607 113.488, 69.743 112, 71.069 109.028 C 71.690 107.637, 75.245 103.942, 78.971 100.815 C 82.917 97.503, 89.271 90.406, 94.193 83.815 C 106.258 67.655, 106.479 67.282, 104.996 65.495 C 104.313 64.673, 103.437 64, 103.048 64 C 102.659 64, 99.452 66.553, 95.920 69.673 M 59 72.935 C 44.762 77.282, 36.192 89.468, 37.225 103.900 C 38.128 116.519, 45.039 126.481, 56.893 132.250 C 62.956 135.200, 64.282 135.460, 73 135.409 C 79.462 135.372, 83.619 134.845, 86 133.760 C 104.367 125.394, 109.170 105.180, 95.878 92.185 C 93.018 89.388, 92.410 89.161, 91.152 90.419 C 89.895 91.677, 90.226 92.450, 93.729 96.430 C 99.403 102.876, 100.538 110.017, 97.093 117.603 C 92.352 128.042, 79.599 133.784, 67.250 131.041 C 50.988 127.428, 41.708 116.777, 41.647 101.659 C 41.613 93.291, 43.790 88.148, 49.478 83.153 C 55.448 77.912, 63.896 75.250, 68.730 77.087 C 72.352 78.465, 72.957 79.663, 71.896 83.361 C 71.409 85.062, 71.273 87.285, 71.595 88.300 C 72.143 90.026, 72.300 90.038, 74.018 88.484 C 76.387 86.340, 77.509 79.819, 75.995 76.990 C 73.821 72.928, 65.515 70.946, 59 72.935 M 87.480 82.173 C 76.587 92.588, 75.050 94.698, 77.636 95.690 C 78.849 96.156, 80.265 95.301, 82.429 92.794 C 87.292 87.162, 98.130 73, 97.577 73 C 97.301 73, 92.758 77.128, 87.480 82.173 M 166.557 81.223 C 164.670 83.916, 164.462 88.343, 166.250 87.756 C 167.594 87.315, 172 81.259, 172 79.852 C 172 78.093, 168.053 79.086, 166.557 81.223 M 58.635 86.073 C 53.769 89.900, 56.346 96, 62.829 96 C 66.441 96, 70 93.022, 70 90 C 70 87.278, 66.522 84, 63.635 84 C 62.334 84, 60.084 84.933, 58.635 86.073 M 60.363 89.497 C 59.440 91.902, 61.616 93.732, 63.778 92.369 C 66.206 90.836, 65.917 88.559, 63.246 88.180 C 61.861 87.983, 60.749 88.492, 60.363 89.497 M 73.200 98.200 C 72.540 98.860, 72 100.055, 72 100.855 C 72 102.010, 72.412 101.937, 74 100.500 C 76.054 98.641, 76.617 97, 75.200 97 C 74.760 97, 73.860 97.540, 73.200 98.200 M 89.695 107.785 C 87.598 110.101, 87.500 114.970, 89.498 117.559 C 90.958 119.451, 91.060 119.427, 93.551 116.632 C 96.808 112.977, 96.744 106.678, 93.445 106.206 C 92.314 106.044, 90.627 106.755, 89.695 107.785 M 47.499 110.644 C 45.824 112.319, 46.125 116.460, 48.066 118.445 C 49.299 119.706, 53.974 118.008, 55.363 115.795 C 56.205 114.453, 55.924 113.548, 54.042 111.545 C 51.256 108.579, 49.769 108.374, 47.499 110.644 M 78.329 117.458 C 73.098 119.733, 71.312 125.026, 75.093 127.050 C 78.430 128.836, 81.579 127.368, 84.305 122.758 C 87.985 116.535, 85.505 114.336, 78.329 117.458 M 57.658 121.198 C 56.512 125.583, 62.573 129.165, 66.635 126.504 C 71.476 123.331, 68.618 119, 61.682 119 C 58.971 119, 58.110 119.470, 57.658 121.198" stroke="none" fill="#a4a49b" fill-rule="evenodd"/></svg>