<svg xmlns="http://www.w3.org/2000/svg" width="300" height="150" viewBox="0 0 300 150" version="1.1"><path d="M 26.571 65.571 C 24.235 67.908, 24.247 99.104, 26.585 101.442 C 27.978 102.835, 32.075 102.995, 60.297 102.764 L 92.424 102.500 93.915 99.843 C 95.205 97.545, 95.217 96.803, 94.005 94.343 L 92.605 91.500 92.053 95.500 L 91.500 99.500 59.750 99.764 L 28 100.028 28 83.514 L 28 67 59.532 67 L 91.064 67 91.915 69.250 C 92.383 70.487, 92.566 71.838, 92.324 72.250 C 92.081 72.662, 92.328 73, 92.874 73 C 94.764 73, 95.190 68.939, 93.560 66.451 L 91.954 64 60.048 64 C 32.377 64, 27.934 64.209, 26.571 65.571 M 30.221 68.842 C 29.258 69.453, 29.012 73.208, 29.221 84.077 L 29.500 98.500 35.396 98.804 C 38.638 98.972, 41.754 98.646, 42.319 98.081 C 43.023 97.377, 41.721 97.246, 38.191 97.664 C 30.347 98.593, 29.997 97.993, 30.015 83.628 C 30.024 76.957, 30.416 70.892, 30.886 70.150 C 31.485 69.206, 33.406 68.905, 37.278 69.150 C 40.322 69.342, 42.604 69.162, 42.348 68.750 C 41.723 67.744, 31.834 67.819, 30.221 68.842 M 45.558 68.907 C 45.249 69.405, 45.898 69.578, 46.999 69.290 C 49.334 68.679, 49.629 68, 47.559 68 C 46.766 68, 45.866 68.408, 45.558 68.907 M 67.500 68.918 L 73.500 69.500 74.100 74 L 74.700 78.500 74.850 74.450 C 75.050 69.049, 73.706 67.966, 67.050 68.168 L 61.500 68.336 67.500 68.918 M 82.978 68.717 C 85.991 68.939, 88.838 69.656, 89.304 70.310 C 89.896 71.140, 90.030 71.047, 89.747 70 C 89.449 68.896, 87.781 68.475, 83.421 68.406 L 77.500 68.313 82.978 68.717 M 58.218 83.231 C 58 96.952, 57.998 96.962, 55.510 97.587 C 54.140 97.931, 51.253 98.043, 49.094 97.838 C 46.935 97.632, 45.382 97.809, 45.643 98.232 C 46.488 99.598, 58.015 99.124, 58.562 97.700 C 58.836 96.984, 58.920 90.347, 58.749 82.950 L 58.437 69.500 58.218 83.231 M 74.355 87.500 C 74.352 92.450, 74.521 94.601, 74.731 92.280 C 74.940 89.959, 74.943 85.909, 74.736 83.280 C 74.530 80.651, 74.358 82.550, 74.355 87.500 M 61.654 98.250 C 61.909 98.662, 64.540 99, 67.500 99 C 70.460 99, 73.089 98.662, 73.342 98.250 C 73.595 97.838, 70.964 97.500, 67.495 97.500 C 64.027 97.500, 61.398 97.838, 61.654 98.250 M 76.655 98.250 C 76.909 98.662, 79.765 99, 83 99 C 86.235 99, 89.091 98.662, 89.345 98.250 C 89.600 97.838, 86.745 97.500, 83 97.500 C 79.255 97.500, 76.400 97.838, 76.655 98.250" stroke="none" fill="#5d7577" fill-rule="evenodd"/><path d="M 92.498 71.003 C 91.965 71.866, 92.082 72.067, 92.845 71.595 C 93.480 71.203, 94 71.359, 94 71.941 C 94 72.523, 93.661 73, 93.247 73 C 92.832 73, 92.353 77.010, 92.183 81.911 C 91.795 93.038, 92.615 94.670, 98.345 94.177 C 103.898 93.698, 105 91.970, 105 83.743 C 105 74.913, 103.990 73, 99.325 73 C 97.128 73, 95.249 72.355, 94.513 71.349 C 93.556 70.039, 93.138 69.968, 92.498 71.003" stroke="none" fill="#a9a3a5" fill-rule="evenodd"/><path d="M 111.374 30.784 C 103.262 32.014, 101.409 48.937, 108.945 52.970 C 113.252 55.276, 121 53.009, 121 49.443 C 121 47.806, 118.439 47.481, 117.500 49 C 117.160 49.550, 115.311 50, 113.390 50 C 110.316 50, 109.715 49.562, 108.372 46.347 C 107.071 43.233, 107.041 42.179, 108.173 39.206 C 110.095 34.156, 112.300 33.078, 116.176 35.293 C 120.061 37.514, 122.306 36.101, 119.617 33.129 C 117.770 31.088, 114.849 30.257, 111.374 30.784 M 32.694 31.639 C 31.566 32.767, 33.044 34, 35.523 34 C 37.879 34, 37.933 34.199, 38.214 43.750 C 38.445 51.623, 38.789 53.500, 40 53.500 C 41.211 53.500, 41.555 51.623, 41.786 43.750 L 42.072 34 45.036 34 C 47.004 34, 48 33.496, 48 32.500 C 48 31.303, 46.519 31, 40.667 31 C 36.633 31, 33.046 31.288, 32.694 31.639 M 53.038 35.929 C 49.964 41.673, 46.265 53.046, 47.270 53.667 C 47.870 54.038, 49.010 53.365, 49.803 52.171 C 51.814 49.142, 59.554 49.018, 60.500 52 C 61.093 53.867, 64.001 54.906, 63.999 53.250 C 63.999 52.023, 60.065 42.048, 57.936 37.875 C 55.729 33.549, 54.560 33.084, 53.038 35.929 M 65.639 34.694 C 65.288 35.046, 65 39.533, 65 44.667 C 65 52.296, 65.274 54, 66.500 54 C 67.482 54, 68 53.017, 68 51.155 C 68 49.590, 68.852 47.539, 69.893 46.597 C 71.708 44.954, 71.883 45.060, 74.156 49.181 C 75.460 51.544, 77.308 53.628, 78.263 53.812 C 80.690 54.279, 80.442 52.838, 77.132 47.223 L 74.263 42.359 76.207 39.690 C 77.276 38.223, 77.980 36.229, 77.770 35.261 C 77.470 33.873, 76.397 34.560, 72.705 38.500 L 68.021 43.500 68.011 39.309 C 68 35.292, 66.996 33.337, 65.639 34.694 M 81.709 34.624 C 81.319 35.014, 81 39.533, 81 44.667 L 81 54 87.573 54 C 93.298 54, 94.102 53.774, 93.803 52.250 C 93.533 50.878, 92.435 50.500, 88.728 50.500 C 84.524 50.500, 83.997 50.255, 83.998 48.307 C 84 46.451, 84.639 46.068, 88.172 45.807 C 94.139 45.368, 94.485 43, 88.583 43 C 84.387 43, 84 42.793, 84 40.552 C 84 38.304, 84.429 38.080, 89.250 37.802 C 93.116 37.580, 94.500 37.104, 94.500 36 C 94.500 34.864, 93.032 34.429, 88.459 34.208 C 85.136 34.047, 82.099 34.234, 81.709 34.624 M 122.639 34.694 C 121.537 35.796, 121.924 52.835, 123.067 53.541 C 124.661 54.526, 125.200 53.522, 125.200 49.567 L 125.200 46 130.040 46 L 134.879 46 135.190 49.644 C 135.458 52.793, 135.874 53.327, 138.251 53.576 C 140.145 53.774, 141.325 53.262, 142.036 51.932 C 143.544 49.115, 151.597 49.154, 152.495 51.983 C 152.975 53.495, 153.880 53.906, 156.312 53.712 C 159.216 53.482, 159.528 53.127, 159.810 49.730 C 160.074 46.557, 160.476 46, 162.496 46 C 164.227 46, 165.483 47.087, 167.120 50 C 168.357 52.200, 169.960 54, 170.684 54 C 172.162 54, 172.483 51.417, 171.111 50.568 C 169.310 49.456, 168.908 44.949, 170.470 43.387 C 172.429 41.428, 172.437 37.607, 170.485 35.987 C 169.652 35.296, 166.389 34.678, 163.235 34.615 L 157.500 34.500 157.210 42.750 C 157.050 47.288, 156.600 50.994, 156.210 50.988 C 155.819 50.981, 154.262 47.916, 152.749 44.178 C 149.540 36.248, 147.703 33.447, 146.285 34.324 C 145.725 34.670, 143.744 38.879, 141.883 43.678 L 138.500 52.402 138 43.691 C 137.501 34.998, 135.778 31.803, 135.190 38.479 C 134.880 41.990, 134.865 42, 129.940 42 L 125 42 125 38.559 C 125 35.194, 123.915 33.418, 122.639 34.694 M 175.923 36.923 C 172.009 40.837, 171.794 47.407, 175.452 51.354 C 180.403 56.695, 191 53.431, 191 46.565 C 191 43.918, 188.107 42.448, 184.329 43.175 C 181.400 43.739, 182.151 46.460, 185.337 46.825 C 188.071 47.138, 188.111 47.220, 186.432 49.075 C 184.181 51.563, 180.530 51.530, 178 49 C 175.219 46.219, 175.445 41.870, 178.520 38.981 C 180.849 36.793, 181.311 36.711, 184.595 37.898 C 188.991 39.488, 190.294 38.471, 187.139 35.914 C 183.647 33.083, 179.379 33.467, 175.923 36.923 M 192.444 35.286 C 192.152 36.045, 192.046 40.455, 192.207 45.084 L 192.500 53.500 199.250 53.796 C 204.673 54.033, 206 53.801, 206 52.613 C 206 50.770, 202.965 49.753, 198.731 50.177 C 196.023 50.448, 195.448 50.136, 195.180 48.250 C 194.889 46.198, 195.264 46, 199.430 46 C 202.826 46, 204 45.614, 204 44.500 C 204 43.109, 203.269 42.896, 197.500 42.602 C 196.243 42.538, 195.384 41.684, 195.188 40.304 C 194.904 38.311, 195.363 38.081, 200.188 37.804 C 204.108 37.580, 205.500 37.107, 205.500 36 C 205.500 33.906, 193.231 33.235, 192.444 35.286 M 160 40.500 C 160 42.573, 160.479 43, 162.809 43 C 166.195 43, 169.580 40.748, 168.594 39.152 C 168.202 38.518, 166.109 38, 163.941 38 C 160.404 38, 160 38.256, 160 40.500 M 53.261 43.500 C 52.205 46.944, 52.234 47, 55.094 47 C 58.440 47, 58.328 47.238, 56.902 43.149 C 55.486 39.087, 54.589 39.173, 53.261 43.500 M 146.125 41.766 C 144.275 45.223, 144.742 47, 147.500 47 C 150.287 47, 150.580 45.675, 148.590 42.082 C 147.252 39.668, 147.248 39.667, 146.125 41.766 M 225.678 41.398 C 225.382 42.167, 224.586 50.091, 223.907 59.007 C 222.702 74.845, 222.633 75.164, 220.905 72.874 C 219.933 71.585, 218.821 70.846, 218.434 71.232 C 218.048 71.619, 216.509 75.398, 215.016 79.630 L 212.299 87.325 209.150 79.077 C 207.417 74.541, 206 70.466, 206 70.022 C 206 69.577, 205.300 68.945, 204.445 68.617 C 202.864 68.011, 200.958 71.333, 199.457 77.315 C 199.084 78.802, 198.435 80.231, 198.014 80.491 C 197.594 80.751, 177.954 80.989, 154.371 81.021 C 130.150 81.053, 110.845 81.478, 110.004 81.997 C 105.703 84.656, 111.626 85.015, 155.532 84.760 L 200.443 84.500 202.105 80.002 L 203.766 75.504 205.223 79.002 C 206.025 80.926, 207.434 84.750, 208.355 87.500 C 209.276 90.250, 210.457 93.175, 210.979 94 C 212.500 96.405, 214.449 93.577, 217.051 85.184 L 219.320 77.868 221.521 80.629 C 223.621 83.262, 223.768 83.300, 224.747 81.444 C 225.311 80.375, 226.131 75.675, 226.570 71 L 227.369 62.500 229.144 81.500 C 232.099 113.126, 232.979 123.368, 232.990 126.281 C 232.999 128.740, 235.299 131.035, 236.525 129.809 C 236.766 129.567, 238.801 117.932, 241.047 103.953 C 243.293 89.974, 245.275 78.392, 245.452 78.215 C 245.629 78.038, 246.387 81.405, 247.137 85.697 C 248.729 94.813, 250.888 96.259, 252.442 89.250 L 253.384 85 263.442 84.985 C 273.829 84.969, 277.904 83.922, 275 82.015 C 272.904 80.639, 252.683 80.717, 251.293 82.107 C 250.218 83.182, 250.031 82.547, 247.371 68.750 C 246.874 66.172, 244.715 65.035, 243.634 66.782 C 243.369 67.213, 241.654 77.113, 239.825 88.782 C 237.996 100.451, 236.162 109.999, 235.750 109.999 C 235.338 110, 235 108.900, 235 107.556 C 235 101.177, 229.178 42.097, 228.430 40.887 C 227.614 39.567, 226.286 39.813, 225.678 41.398 M 47.035 69.183 C 45.032 69.924, 44.955 70.541, 45.222 83.728 L 45.500 97.500 49.405 97.820 C 51.552 97.995, 54.365 97.874, 55.655 97.551 C 57.975 96.968, 58 96.814, 58 82.981 C 58 70.382, 57.827 68.987, 56.250 68.871 C 50.368 68.438, 48.916 68.487, 47.035 69.183 M 30.625 70.536 C 29.448 73.603, 29.928 95.528, 31.200 96.800 C 32.487 98.087, 37.069 98.356, 40.777 97.363 C 43.024 96.761, 43.051 96.567, 42.777 83.126 L 42.500 69.500 36.875 69.204 C 32.418 68.969, 31.120 69.246, 30.625 70.536 M 60.667 69.667 C 60.300 70.033, 60 76.281, 60 83.550 C 60 98.373, 59.763 97.955, 68.168 97.986 C 74.624 98.010, 74.523 98.238, 74.272 84.269 C 74.147 77.278, 73.823 70.982, 73.553 70.279 C 73.037 68.932, 61.929 68.404, 60.667 69.667 M 76.667 69.667 C 76.300 70.033, 76 76.285, 76 83.560 C 76 98.248, 75.880 98, 83 98 C 90.076 98, 90 98.147, 90 84.475 C 90 77.704, 89.727 71.452, 89.393 70.582 C 88.937 69.394, 87.359 69, 83.060 69 C 79.910 69, 77.033 69.300, 76.667 69.667" stroke="none" fill="#249196" fill-rule="evenodd"/></svg>